<?xml version="1.0" encoding="UTF-8"?>
<svg xmlns="http://www.w3.org/2000/svg" xmlns:xlink="http://www.w3.org/1999/xlink" width="75px" height="60px" viewBox="0 0 75 60" version="1.1">
<g id="surface1">
<path style=" stroke:none;fill-rule:nonzero;fill:rgb(52.54902%,52.54902%,52.54902%);fill-opacity:1;" d="M 5.703125 50.042969 C 5.996094 50.410156 6.152344 50.863281 6.148438 51.328125 C 6.175781 51.945312 5.921875 52.539062 5.460938 52.945312 C 4.886719 53.386719 4.167969 53.597656 3.445312 53.542969 L 0 53.542969 L 0 45.402344 L 3.414062 45.402344 C 4.089844 45.359375 4.753906 45.554688 5.300781 45.949219 C 5.75 46.320312 5.996094 46.882812 5.964844 47.464844 C 5.976562 47.90625 5.835938 48.335938 5.5625 48.679688 C 5.308594 49 4.953125 49.222656 4.554688 49.316406 C 5.011719 49.417969 5.414062 49.675781 5.703125 50.042969 Z M 1.671875 48.820312 L 3.082031 48.820312 C 3.421875 48.851562 3.761719 48.753906 4.03125 48.546875 C 4.246094 48.347656 4.363281 48.0625 4.351562 47.769531 C 4.367188 47.472656 4.25 47.183594 4.03125 46.980469 C 3.742188 46.765625 3.382812 46.667969 3.023438 46.707031 L 1.621094 46.707031 Z M 4.203125 51.933594 C 4.4375 51.726562 4.566406 51.421875 4.542969 51.105469 C 4.5625 50.789062 4.433594 50.484375 4.191406 50.277344 C 3.902344 50.058594 3.542969 49.953125 3.183594 49.984375 L 1.621094 49.984375 L 1.621094 52.21875 L 3.164062 52.21875 C 3.515625 52.242188 3.863281 52.140625 4.152344 51.933594 Z M 4.203125 51.933594 "/>
<path style=" stroke:none;fill-rule:nonzero;fill:rgb(52.54902%,52.54902%,52.54902%);fill-opacity:1;" d="M 12.65625 53.542969 L 10.761719 50.367188 L 10.078125 50.367188 L 10.078125 53.542969 L 8.433594 53.542969 L 8.433594 45.402344 L 11.515625 45.402344 C 12.296875 45.347656 13.070312 45.59375 13.675781 46.089844 C 14.171875 46.566406 14.445312 47.230469 14.417969 47.921875 C 14.4375 48.480469 14.253906 49.023438 13.90625 49.457031 C 13.523438 49.898438 13.003906 50.191406 12.433594 50.289062 L 14.449219 53.542969 Z M 10.078125 49.257812 L 11.386719 49.257812 C 12.3125 49.257812 12.777344 48.839844 12.777344 48.023438 C 12.792969 47.679688 12.667969 47.347656 12.433594 47.101562 C 12.148438 46.875 11.789062 46.757812 11.425781 46.777344 L 10.078125 46.777344 Z M 10.078125 49.257812 "/>
<path style=" stroke:none;fill-rule:nonzero;fill:rgb(52.54902%,52.54902%,52.54902%);fill-opacity:1;" d="M 21.59375 51.90625 L 18.347656 51.90625 L 17.773438 53.542969 L 16.0625 53.542969 L 19.085938 45.453125 L 20.9375 45.453125 L 23.960938 53.542969 L 22.167969 53.542969 Z M 21.160156 50.703125 L 19.960938 47.265625 L 18.773438 50.703125 Z M 21.160156 50.703125 "/>
<path style=" stroke:none;fill-rule:nonzero;fill:rgb(52.54902%,52.54902%,52.54902%);fill-opacity:1;" d="M 32.757812 53.542969 L 31.148438 53.542969 L 27.507812 48.011719 L 27.507812 53.542969 L 25.898438 53.542969 L 25.898438 45.402344 L 27.507812 45.402344 L 31.148438 50.984375 L 31.148438 45.402344 L 32.757812 45.402344 Z M 32.757812 53.542969 "/>
<path style=" stroke:none;fill-rule:nonzero;fill:rgb(52.54902%,52.54902%,52.54902%);fill-opacity:1;" d="M 42.007812 51.589844 C 41.675781 52.207031 41.167969 52.703125 40.546875 53.027344 C 39.84375 53.386719 39.0625 53.5625 38.269531 53.542969 L 35.378906 53.542969 L 35.378906 45.402344 L 38.289062 45.402344 C 39.078125 45.386719 39.859375 45.558594 40.566406 45.910156 C 41.1875 46.222656 41.695312 46.714844 42.03125 47.324219 C 42.703125 48.667969 42.703125 50.25 42.03125 51.589844 Z M 40.15625 51.398438 C 41.089844 50.273438 41.089844 48.640625 40.15625 47.515625 C 39.601562 47.027344 38.878906 46.773438 38.140625 46.820312 L 37 46.820312 L 37 52.085938 L 38.128906 52.085938 C 38.867188 52.136719 39.597656 51.890625 40.15625 51.398438 Z M 40.15625 51.398438 "/>
<path style=" stroke:none;fill-rule:nonzero;fill:rgb(52.54902%,52.54902%,52.54902%);fill-opacity:1;" d="M 22.613281 0.148438 C 22.613281 0.148438 43.519531 8.074219 43.078125 19.53125 L 43.078125 38.921875 C 43.078125 38.921875 22.167969 30.996094 22.621094 19.53125 Z M 22.613281 0.148438 "/>
<path style=" stroke:none;fill-rule:nonzero;fill:rgb(52.54902%,52.54902%,52.54902%);fill-opacity:1;" d="M 61.710938 34.382812 C 65.660156 31.65625 70.230469 29.96875 75 29.46875 L 75 23.402344 C 72.148438 24.496094 69.507812 26.070312 67.179688 28.054688 C 65.042969 29.871094 63.199219 32.003906 61.710938 34.382812 Z M 61.710938 34.382812 "/>
<path style=" stroke:none;fill-rule:nonzero;fill:rgb(52.54902%,52.54902%,52.54902%);fill-opacity:1;" d="M 59.332031 36.214844 C 62.5625 29.675781 68.171875 24.632812 75 22.128906 L 75 4.636719 C 75 4.636719 45.214844 15.921875 45.847656 32.25 L 45.847656 59.851562 C 45.847656 59.851562 47.179688 59.347656 49.265625 58.40625 C 49.265625 57.515625 49.292969 56.625 49.355469 55.738281 C 49.972656 48.160156 53.558594 41.140625 59.332031 36.214844 Z M 59.332031 36.214844 "/>
<path style=" stroke:none;fill-rule:nonzero;fill:rgb(52.54902%,52.54902%,52.54902%);fill-opacity:1;" d="M 56.507812 46.464844 C 56.652344 44.550781 56.988281 42.65625 57.515625 40.8125 C 53.917969 45.0625 51.738281 50.339844 51.289062 55.898438 C 51.289062 56.425781 51.21875 56.910156 51.210938 57.476562 C 52.902344 56.65625 54.867188 55.636719 56.933594 54.441406 C 56.421875 51.816406 56.28125 49.132812 56.507812 46.464844 Z M 56.507812 46.464844 "/>
<path style=" stroke:none;fill-rule:nonzero;fill:rgb(52.54902%,52.54902%,52.54902%);fill-opacity:1;" d="M 57.6875 46.566406 C 57.488281 48.984375 57.613281 51.421875 58.0625 53.804688 C 66.191406 48.921875 75.34375 41.371094 74.988281 32.25 L 74.988281 31.492188 C 69.175781 32.144531 63.738281 34.691406 59.503906 38.742188 C 58.515625 41.246094 57.90625 43.882812 57.6875 46.566406 Z M 57.6875 46.566406 "/>
</g>
</svg>
