<?xml version="1.0" encoding="UTF-8"?>
<svg xmlns="http://www.w3.org/2000/svg" xmlns:xlink="http://www.w3.org/1999/xlink" width="60px" height="60px" viewBox="0 0 60 58" version="1.1">
<g id="surface1">
<path style=" stroke:none;fill-rule:nonzero;fill:rgb(52.54902%,52.54902%,52.54902%);fill-opacity:1;" d="M 3.359375 55.402344 C 3.5 55.371094 3.636719 55.324219 3.761719 55.257812 C 3.863281 55.1875 3.953125 55.101562 4.03125 55.003906 C 4.097656 54.914062 4.148438 54.8125 4.179688 54.707031 C 4.195312 54.601562 4.195312 54.492188 4.179688 54.386719 C 4.183594 54.191406 4.144531 54 4.066406 53.824219 C 3.996094 53.652344 3.878906 53.503906 3.730469 53.390625 C 3.566406 53.246094 3.382812 53.132812 3.179688 53.046875 C 2.882812 52.976562 2.578125 52.941406 2.269531 52.949219 L 0.398438 52.949219 L 0.398438 57.976562 L 2.4375 57.976562 C 2.714844 57.984375 2.992188 57.945312 3.257812 57.867188 C 3.476562 57.800781 3.675781 57.691406 3.851562 57.546875 C 4.015625 57.417969 4.140625 57.25 4.222656 57.0625 C 4.308594 56.875 4.351562 56.667969 4.347656 56.464844 C 4.359375 56.210938 4.273438 55.960938 4.109375 55.765625 C 3.902344 55.574219 3.640625 55.449219 3.359375 55.402344 Z M 1.585938 53.84375 L 2.269531 53.84375 C 2.386719 53.832031 2.503906 53.832031 2.617188 53.84375 C 2.707031 53.863281 2.789062 53.894531 2.867188 53.945312 C 2.921875 53.996094 2.96875 54.0625 3 54.132812 C 3.019531 54.230469 3.019531 54.332031 3 54.429688 C 3.019531 54.53125 3.019531 54.636719 3 54.738281 C 2.96875 54.820312 2.90625 54.886719 2.832031 54.925781 C 2.746094 54.972656 2.65625 55.007812 2.5625 55.027344 C 2.445312 55.039062 2.332031 55.039062 2.214844 55.027344 L 1.585938 55.027344 Z M 3.144531 56.695312 C 3.125 56.773438 3.089844 56.847656 3.035156 56.90625 C 2.96875 56.976562 2.886719 57.027344 2.796875 57.0625 C 2.671875 57.085938 2.542969 57.085938 2.417969 57.0625 L 1.585938 57.0625 L 1.585938 55.867188 L 2.40625 55.867188 C 2.527344 55.847656 2.652344 55.847656 2.777344 55.867188 C 2.863281 55.886719 2.941406 55.921875 3.011719 55.976562 C 3.074219 56.027344 3.121094 56.089844 3.144531 56.164062 C 3.160156 56.25 3.160156 56.335938 3.144531 56.417969 C 3.160156 56.511719 3.160156 56.605469 3.144531 56.695312 Z M 3.144531 56.695312 "/>
<path style=" stroke:none;fill-rule:nonzero;fill:rgb(52.54902%,52.54902%,52.54902%);fill-opacity:1;" d="M 9.304688 56.042969 C 9.238281 55.984375 9.160156 55.929688 9.078125 55.890625 C 9.238281 55.839844 9.386719 55.761719 9.515625 55.65625 C 9.640625 55.5625 9.753906 55.453125 9.84375 55.324219 C 9.933594 55.203125 10 55.070312 10.042969 54.925781 C 10.089844 54.777344 10.113281 54.621094 10.113281 54.464844 C 10.109375 54.257812 10.070312 54.058594 10 53.867188 C 9.917969 53.683594 9.796875 53.519531 9.640625 53.390625 C 9.453125 53.238281 9.234375 53.121094 9 53.046875 C 8.695312 52.96875 8.378906 52.929688 8.058594 52.9375 L 6.398438 52.9375 L 6.398438 57.96875 L 7.578125 57.96875 L 7.578125 56.144531 L 7.878906 56.144531 C 7.949219 56.128906 8.023438 56.128906 8.09375 56.144531 C 8.164062 56.203125 8.214844 56.277344 8.25 56.363281 L 9.089844 57.824219 C 9.179688 57.96875 9.34375 58.054688 9.515625 58.042969 L 10.640625 58.042969 L 9.515625 56.296875 C 9.46875 56.195312 9.394531 56.109375 9.304688 56.042969 Z M 8.902344 54.859375 C 8.871094 54.953125 8.816406 55.039062 8.742188 55.105469 C 8.667969 55.1875 8.570312 55.246094 8.464844 55.269531 C 8.332031 55.316406 8.195312 55.339844 8.058594 55.335938 L 7.578125 55.335938 L 7.578125 53.84375 L 8.058594 53.84375 C 8.300781 53.828125 8.539062 53.894531 8.730469 54.03125 C 8.882812 54.164062 8.964844 54.355469 8.957031 54.550781 C 8.957031 54.65625 8.9375 54.761719 8.902344 54.859375 Z M 8.902344 54.859375 "/>
<path style=" stroke:none;fill-rule:nonzero;fill:rgb(52.54902%,52.54902%,52.54902%);fill-opacity:1;" d="M 14.015625 52.972656 L 12.042969 58 L 12.972656 58 C 13.0625 58.003906 13.148438 57.976562 13.21875 57.921875 C 13.28125 57.878906 13.328125 57.816406 13.355469 57.746094 L 13.65625 56.871094 L 15.597656 56.871094 L 15.898438 57.746094 C 15.921875 57.820312 15.96875 57.886719 16.035156 57.933594 C 16.113281 57.980469 16.203125 58.003906 16.292969 58 L 17.222656 58 L 15.238281 52.972656 Z M 13.925781 56.078125 L 14.398438 54.707031 L 14.507812 54.398438 C 14.554688 54.269531 14.589844 54.140625 14.621094 54.011719 C 14.621094 54.144531 14.699219 54.277344 14.746094 54.386719 C 14.789062 54.496094 14.824219 54.617188 14.855469 54.695312 L 15.328125 56.078125 Z M 13.925781 56.078125 "/>
<path style=" stroke:none;fill-rule:nonzero;fill:rgb(52.54902%,52.54902%,52.54902%);fill-opacity:1;" d="M 22.441406 55.636719 L 22.441406 55.890625 C 22.441406 55.976562 22.441406 56.078125 22.441406 56.164062 L 20.015625 53.148438 L 19.949219 53.046875 L 19.019531 53.046875 L 19.019531 58.078125 L 20.0625 58.078125 L 20.0625 55.070312 C 20.0625 54.984375 20.0625 54.894531 20.0625 54.804688 L 22.472656 57.8125 C 22.519531 57.875 22.582031 57.925781 22.652344 57.957031 C 22.730469 57.972656 22.8125 57.972656 22.886719 57.957031 L 23.503906 57.957031 L 23.503906 52.972656 L 22.460938 52.972656 Z M 22.441406 55.636719 "/>
<path style=" stroke:none;fill-rule:nonzero;fill:rgb(52.54902%,52.54902%,52.54902%);fill-opacity:1;" d="M 29.617188 53.691406 C 29.382812 53.457031 29.101562 53.277344 28.789062 53.160156 C 28.429688 53.027344 28.050781 52.964844 27.667969 52.972656 L 25.714844 52.972656 L 25.714844 58 L 27.699219 58 C 28.082031 58.007812 28.464844 57.945312 28.820312 57.8125 C 29.132812 57.699219 29.417969 57.523438 29.652344 57.292969 C 29.886719 57.0625 30.070312 56.789062 30.191406 56.484375 C 30.445312 55.84375 30.445312 55.128906 30.191406 54.484375 C 30.0625 54.179688 29.867188 53.910156 29.617188 53.691406 Z M 29.046875 56.164062 C 28.984375 56.351562 28.882812 56.523438 28.753906 56.671875 C 28.632812 56.8125 28.480469 56.921875 28.304688 56.996094 C 28.113281 57.066406 27.90625 57.105469 27.699219 57.105469 L 26.914062 57.105469 L 26.914062 53.867188 L 27.699219 53.867188 C 27.90625 53.867188 28.113281 53.902344 28.304688 53.976562 C 28.480469 54.046875 28.632812 54.160156 28.753906 54.296875 C 28.882812 54.445312 28.984375 54.621094 29.046875 54.804688 C 29.167969 55.25 29.167969 55.71875 29.046875 56.164062 Z M 29.046875 56.164062 "/>
<path style=" stroke:none;fill-rule:nonzero;fill:rgb(52.54902%,52.54902%,52.54902%);fill-opacity:1;" d="M 38.535156 55.636719 L 38.535156 55.890625 C 38.535156 55.976562 38.535156 56.078125 38.535156 56.164062 L 36.113281 53.148438 L 36 53.046875 L 35.070312 53.046875 L 35.070312 58.078125 L 36.113281 58.078125 L 36.113281 55.070312 C 36.113281 54.984375 36.113281 54.894531 36.113281 54.804688 L 38.535156 57.8125 C 38.582031 57.875 38.644531 57.925781 38.714844 57.957031 C 38.792969 57.972656 38.875 57.972656 38.953125 57.957031 L 39.566406 57.957031 L 39.566406 52.972656 L 38.535156 52.972656 Z M 38.535156 55.636719 "/>
<path style=" stroke:none;fill-rule:nonzero;fill:rgb(52.54902%,52.54902%,52.54902%);fill-opacity:1;" d="M 43.335938 52.972656 L 41.363281 58 L 42.28125 58 C 42.371094 58.003906 42.460938 57.976562 42.53125 57.921875 C 42.589844 57.875 42.640625 57.816406 42.675781 57.746094 L 42.96875 56.871094 L 44.90625 56.871094 L 45.210938 57.746094 C 45.242188 57.820312 45.292969 57.882812 45.355469 57.933594 C 45.429688 57.980469 45.515625 58.003906 45.601562 58 L 46.523438 58 L 44.546875 52.972656 Z M 43.246094 56.078125 L 43.71875 54.707031 L 43.832031 54.398438 C 43.832031 54.277344 43.910156 54.144531 43.941406 54.011719 C 43.976562 54.136719 44.015625 54.261719 44.066406 54.386719 C 44.066406 54.507812 44.144531 54.617188 44.167969 54.695312 L 44.636719 56.078125 Z M 43.246094 56.078125 "/>
<path style=" stroke:none;fill-rule:nonzero;fill:rgb(52.54902%,52.54902%,52.54902%);fill-opacity:1;" d="M 53.039062 52.972656 L 52.9375 52.972656 C 52.910156 52.964844 52.878906 52.964844 52.847656 52.972656 C 52.820312 53 52.800781 53.035156 52.78125 53.070312 L 51.46875 55.613281 L 51.335938 55.890625 C 51.335938 55.988281 51.246094 56.089844 51.210938 56.1875 L 51.089844 55.898438 L 50.953125 55.625 L 49.628906 53.070312 C 49.613281 53.035156 49.589844 53 49.5625 52.972656 C 49.535156 52.964844 49.511719 52.964844 49.484375 52.972656 L 48.339844 52.972656 L 48.339844 58 L 49.382812 58 L 49.382812 55.105469 C 49.390625 54.953125 49.390625 54.800781 49.382812 54.652344 L 50.75 57.238281 C 50.765625 57.328125 50.808594 57.410156 50.875 57.46875 C 50.957031 57.488281 51.039062 57.488281 51.121094 57.46875 L 51.277344 57.46875 C 51.359375 57.484375 51.445312 57.484375 51.527344 57.46875 C 51.597656 57.421875 51.652344 57.355469 51.695312 57.28125 L 53.039062 54.695312 C 53.039062 54.859375 53.039062 55.015625 53.039062 55.148438 L 53.039062 58.042969 L 54.082031 58.042969 L 54.082031 52.972656 Z M 53.039062 52.972656 "/>
<path style=" stroke:none;fill-rule:nonzero;fill:rgb(52.54902%,52.54902%,52.54902%);fill-opacity:1;" d="M 59.601562 53.867188 L 59.601562 52.972656 L 56.316406 52.972656 L 56.316406 58 L 59.601562 58 L 59.601562 57.105469 L 57.515625 57.105469 L 57.515625 55.898438 L 59.121094 55.898438 L 59.121094 55.039062 L 57.515625 55.039062 L 57.515625 53.867188 Z M 59.601562 53.867188 "/>
<path style=" stroke:none;fill-rule:nonzero;fill:rgb(52.54902%,52.54902%,52.54902%);fill-opacity:1;" d="M 52.671875 38.878906 L 44.917969 25.617188 L 51.503906 14.367188 C 51.738281 13.960938 51.742188 13.464844 51.511719 13.054688 C 51.285156 12.648438 50.855469 12.386719 50.382812 12.367188 L 37.15625 12.367188 L 29.886719 0 L 22.617188 12.398438 L 9.449219 12.398438 C 8.96875 12.390625 8.523438 12.636719 8.273438 13.042969 C 8.027344 13.449219 8.019531 13.953125 8.25 14.367188 L 14.867188 25.640625 L 7.128906 38.878906 L 22.617188 38.878906 L 28.722656 49.292969 C 28.953125 49.691406 29.378906 49.941406 29.84375 49.953125 C 30.328125 49.957031 30.777344 49.703125 31.019531 49.292969 L 37.113281 38.878906 Z M 49.304688 14.289062 L 43.820312 23.761719 L 38.210938 14.289062 Z M 36.472656 36.292969 L 24.347656 36.292969 L 20.320312 29.421875 L 26.554688 18.789062 L 36.652344 36.007812 Z M 25.636719 17.207031 L 19.398438 27.851562 L 18.109375 25.640625 L 24.347656 14.996094 Z M 10.414062 14.289062 L 21.519531 14.289062 L 15.96875 23.761719 Z M 29.886719 47.523438 L 24.828125 38.878906 L 34.925781 38.878906 Z M 29.886719 47.523438 "/>
</g>
</svg>
