<?xml version="1.0" encoding="UTF-8"?>
<svg xmlns="http://www.w3.org/2000/svg" xmlns:xlink="http://www.w3.org/1999/xlink" width="80px" height="60px" viewBox="0 0 79 60" version="1.1">
<g id="surface1">
<path style=" stroke:none;fill-rule:nonzero;fill:rgb(52.54902%,52.54902%,52.54902%);fill-opacity:1;" d="M 27.414062 8.777344 C 27.515625 8.257812 27.824219 7.800781 28.269531 7.519531 C 28.714844 7.234375 29.253906 7.144531 29.765625 7.273438 C 30.289062 7.433594 30.722656 7.804688 30.964844 8.300781 C 31.203125 8.796875 31.230469 9.371094 31.039062 9.886719 C 30.566406 10.929688 29.429688 11.480469 28.328125 11.203125 C 27.269531 10.878906 26.464844 10 26.230469 8.90625 C 26.035156 7.835938 26.289062 6.734375 26.929688 5.859375 C 27.546875 4.992188 28.441406 4.363281 29.464844 4.082031 C 30.457031 3.792969 31.503906 3.738281 32.519531 3.925781 C 33.519531 4.117188 34.488281 4.449219 35.394531 4.90625 C 33.542969 4.199219 31.441406 3.71875 29.554688 4.371094 C 28.613281 4.664062 27.792969 5.257812 27.21875 6.066406 C 26.648438 6.859375 26.433594 7.859375 26.621094 8.820312 C 26.8125 9.777344 27.5 10.550781 28.421875 10.847656 C 29.363281 11.101562 30.351562 10.648438 30.785156 9.765625 C 30.960938 9.320312 30.945312 8.820312 30.746094 8.382812 C 30.546875 7.949219 30.179688 7.613281 29.730469 7.457031 C 29.25 7.3125 28.730469 7.371094 28.292969 7.621094 C 27.855469 7.871094 27.539062 8.289062 27.414062 8.777344 Z M 27.414062 8.777344 "/>
<path style=" stroke:none;fill-rule:nonzero;fill:rgb(52.54902%,52.54902%,52.54902%);fill-opacity:1;" d="M 51.585938 8.777344 C 51.460938 8.292969 51.148438 7.878906 50.71875 7.628906 C 50.289062 7.382812 49.777344 7.320312 49.300781 7.457031 C 48.855469 7.617188 48.492188 7.957031 48.300781 8.390625 C 48.105469 8.828125 48.097656 9.324219 48.277344 9.765625 C 48.707031 10.640625 49.679688 11.089844 50.613281 10.847656 C 51.535156 10.550781 52.222656 9.777344 52.414062 8.820312 C 52.589844 7.851562 52.359375 6.855469 51.777344 6.066406 C 51.203125 5.261719 50.382812 4.664062 49.445312 4.371094 C 47.550781 3.71875 45.457031 4.164062 43.597656 4.90625 C 44.507812 4.449219 45.480469 4.117188 46.480469 3.925781 C 47.496094 3.738281 48.542969 3.792969 49.535156 4.082031 C 50.558594 4.367188 51.449219 4.992188 52.070312 5.859375 C 52.710938 6.734375 52.964844 7.835938 52.769531 8.90625 C 52.53125 10 51.730469 10.875 50.671875 11.203125 C 49.570312 11.484375 48.425781 10.933594 47.957031 9.886719 C 47.765625 9.371094 47.796875 8.796875 48.039062 8.300781 C 48.28125 7.808594 48.714844 7.4375 49.234375 7.273438 C 49.746094 7.144531 50.289062 7.230469 50.730469 7.515625 C 51.175781 7.800781 51.484375 8.257812 51.585938 8.777344 Z M 51.585938 8.777344 "/>
<path style=" stroke:none;fill-rule:nonzero;fill:rgb(52.54902%,52.54902%,52.54902%);fill-opacity:1;" d="M 77.832031 15.207031 C 77.601562 14.765625 77.203125 14.433594 76.726562 14.289062 C 76.253906 14.148438 75.738281 14.203125 75.304688 14.445312 C 74.898438 14.699219 74.617188 15.109375 74.515625 15.578125 C 74.417969 16.050781 74.515625 16.542969 74.789062 16.9375 C 75.402344 17.6875 76.453125 17.90625 77.3125 17.460938 C 78.140625 16.957031 78.636719 16.046875 78.613281 15.074219 C 78.582031 14.089844 78.148438 13.167969 77.410156 12.523438 C 76.671875 11.863281 75.742188 11.460938 74.761719 11.378906 C 72.765625 11.179688 70.828125 12.085938 69.164062 13.242188 C 69.949219 12.585938 70.820312 12.042969 71.75 11.625 C 72.703125 11.210938 73.734375 11.023438 74.765625 11.074219 C 75.839844 11.121094 76.859375 11.535156 77.664062 12.253906 C 78.484375 12.964844 78.976562 13.988281 79.015625 15.078125 C 79.035156 16.195312 78.453125 17.230469 77.496094 17.785156 C 76.492188 18.316406 75.253906 18.039062 74.5625 17.128906 C 74.261719 16.671875 74.164062 16.105469 74.289062 15.570312 C 74.414062 15.035156 74.75 14.578125 75.222656 14.304688 C 75.683594 14.0625 76.226562 14.023438 76.71875 14.195312 C 77.210938 14.367188 77.613281 14.730469 77.832031 15.207031 Z M 77.832031 15.207031 "/>
<path style=" stroke:none;fill-rule:nonzero;fill:rgb(52.54902%,52.54902%,52.54902%);fill-opacity:1;" d="M 1.175781 15.207031 C 1.390625 14.722656 1.792969 14.351562 2.289062 14.175781 C 2.785156 14 3.332031 14.039062 3.800781 14.28125 C 4.269531 14.558594 4.605469 15.015625 4.730469 15.550781 C 4.855469 16.085938 4.753906 16.648438 4.457031 17.105469 C 3.765625 18.019531 2.527344 18.296875 1.519531 17.765625 C 0.566406 17.210938 -0.015625 16.175781 0 15.066406 C 0.0429688 13.976562 0.53125 12.953125 1.351562 12.238281 C 2.144531 11.546875 3.148438 11.140625 4.199219 11.09375 C 5.230469 11.046875 6.261719 11.234375 7.214844 11.648438 C 8.144531 12.0625 9.011719 12.609375 9.796875 13.265625 C 8.171875 12.085938 6.234375 11.203125 4.238281 11.378906 C 3.261719 11.453125 2.332031 11.847656 1.59375 12.5 C 0.855469 13.148438 0.417969 14.082031 0.390625 15.074219 C 0.367188 16.046875 0.863281 16.957031 1.6875 17.460938 C 2.542969 17.902344 3.585938 17.683594 4.199219 16.9375 C 4.46875 16.542969 4.566406 16.050781 4.472656 15.582031 C 4.375 15.109375 4.089844 14.699219 3.6875 14.445312 C 3.253906 14.207031 2.746094 14.152344 2.273438 14.296875 C 1.800781 14.441406 1.40625 14.769531 1.175781 15.207031 Z M 1.175781 15.207031 "/>
<path style=" stroke:none;fill-rule:nonzero;fill:rgb(52.54902%,52.54902%,52.54902%);fill-opacity:1;" d="M 26.28125 11.414062 C 26.296875 11.066406 26.128906 10.734375 25.839844 10.542969 C 25.535156 10.394531 25.183594 10.394531 24.878906 10.542969 C 24.574219 10.667969 24.324219 10.90625 24.179688 11.207031 C 24.050781 11.507812 24.027344 11.847656 24.117188 12.164062 C 24.371094 12.777344 24.925781 13.214844 25.578125 13.308594 C 26.226562 13.472656 26.90625 13.472656 27.554688 13.308594 C 28.859375 12.945312 30.058594 12.277344 31.050781 11.351562 C 32.003906 10.328125 33.066406 9.414062 34.214844 8.621094 C 34.832031 8.257812 35.527344 8.050781 36.242188 8.007812 C 36.96875 7.976562 37.6875 8.171875 38.300781 8.566406 C 38.929688 8.953125 39.390625 9.570312 39.582031 10.289062 C 39.742188 11.027344 39.589844 11.796875 39.152344 12.410156 C 38.753906 13.023438 38.128906 13.457031 37.417969 13.617188 C 36.703125 13.753906 35.960938 13.570312 35.390625 13.117188 C 35.109375 12.886719 34.898438 12.582031 34.78125 12.238281 C 34.667969 11.890625 34.703125 11.511719 34.871094 11.1875 C 35.035156 10.867188 35.304688 10.617188 35.632812 10.480469 C 35.957031 10.347656 36.320312 10.347656 36.640625 10.480469 C 36.324219 10.347656 35.964844 10.347656 35.648438 10.480469 C 35.335938 10.621094 35.089844 10.875 34.949219 11.1875 C 34.6875 11.824219 34.917969 12.558594 35.496094 12.925781 C 36.027344 13.320312 36.699219 13.46875 37.347656 13.335938 C 37.988281 13.171875 38.539062 12.761719 38.886719 12.199219 C 39.253906 11.660156 39.378906 10.992188 39.238281 10.355469 C 39.066406 9.722656 38.65625 9.183594 38.097656 8.847656 C 37.546875 8.5 36.902344 8.328125 36.25 8.363281 C 35.59375 8.40625 34.957031 8.609375 34.390625 8.949219 C 33.253906 9.699219 32.203125 10.570312 31.253906 11.546875 C 30.21875 12.503906 28.964844 13.1875 27.601562 13.53125 C 26.914062 13.707031 26.191406 13.707031 25.503906 13.53125 C 24.777344 13.398438 24.175781 12.894531 23.914062 12.199219 C 23.832031 11.839844 23.878906 11.460938 24.039062 11.128906 C 24.203125 10.800781 24.488281 10.546875 24.832031 10.425781 C 25.164062 10.285156 25.539062 10.308594 25.851562 10.488281 C 26.152344 10.695312 26.3125 11.050781 26.28125 11.414062 Z M 26.28125 11.414062 "/>
<path style=" stroke:none;fill-rule:nonzero;fill:rgb(52.54902%,52.54902%,52.54902%);fill-opacity:1;" d="M 52.726562 11.414062 C 52.703125 11.050781 52.875 10.703125 53.175781 10.503906 C 53.484375 10.324219 53.859375 10.300781 54.191406 10.4375 C 54.535156 10.558594 54.824219 10.8125 54.988281 11.144531 C 55.148438 11.476562 55.191406 11.851562 55.105469 12.210938 C 54.824219 12.898438 54.210938 13.386719 53.484375 13.496094 C 52.792969 13.671875 52.074219 13.671875 51.382812 13.496094 C 50.019531 13.15625 48.765625 12.472656 47.730469 11.511719 C 46.78125 10.535156 45.730469 9.664062 44.597656 8.914062 C 44.03125 8.574219 43.394531 8.375 42.734375 8.328125 C 42.082031 8.296875 41.4375 8.464844 40.882812 8.8125 C 40.328125 9.152344 39.917969 9.6875 39.742188 10.320312 C 39.605469 10.957031 39.734375 11.621094 40.097656 12.164062 C 40.445312 12.726562 40.992188 13.132812 41.628906 13.300781 C 42.277344 13.433594 42.953125 13.285156 43.484375 12.890625 C 44.054688 12.542969 44.300781 11.839844 44.078125 11.207031 C 43.933594 10.898438 43.6875 10.648438 43.378906 10.503906 C 43.0625 10.367188 42.703125 10.367188 42.386719 10.503906 C 42.710938 10.367188 43.074219 10.367188 43.402344 10.503906 C 43.726562 10.640625 43.996094 10.890625 44.15625 11.207031 C 44.332031 11.53125 44.363281 11.914062 44.246094 12.261719 C 44.128906 12.605469 43.917969 12.90625 43.636719 13.136719 C 43.066406 13.589844 42.332031 13.773438 41.617188 13.640625 C 40.898438 13.46875 40.273438 13.019531 39.882812 12.386719 C 39.441406 11.777344 39.285156 11.003906 39.449219 10.269531 C 39.632812 9.558594 40.082031 8.941406 40.699219 8.550781 C 41.3125 8.160156 42.03125 7.964844 42.757812 7.996094 C 43.46875 8.042969 44.164062 8.257812 44.777344 8.621094 C 45.929688 9.398438 46.996094 10.292969 47.957031 11.300781 C 48.949219 12.226562 50.148438 12.894531 51.453125 13.257812 C 52.097656 13.421875 52.773438 13.421875 53.421875 13.257812 C 54.074219 13.164062 54.632812 12.730469 54.890625 12.113281 C 54.976562 11.796875 54.953125 11.460938 54.820312 11.160156 C 54.675781 10.855469 54.425781 10.621094 54.121094 10.496094 C 53.816406 10.347656 53.464844 10.347656 53.160156 10.496094 C 52.859375 10.695312 52.691406 11.050781 52.726562 11.414062 Z M 52.726562 11.414062 "/>
<path style=" stroke:none;fill-rule:nonzero;fill:rgb(52.54902%,52.54902%,52.54902%);fill-opacity:1;" d="M 57.554688 11.414062 C 57.570312 11.066406 57.402344 10.738281 57.113281 10.542969 C 56.8125 10.394531 56.457031 10.394531 56.15625 10.542969 C 55.847656 10.667969 55.597656 10.90625 55.457031 11.207031 C 55.324219 11.507812 55.304688 11.847656 55.394531 12.164062 C 55.644531 12.78125 56.199219 13.214844 56.855469 13.308594 C 57.5 13.472656 58.175781 13.472656 58.820312 13.308594 C 60.125 12.945312 61.324219 12.273438 62.320312 11.351562 C 63.28125 10.34375 64.34375 9.445312 65.496094 8.671875 C 66.117188 8.308594 66.816406 8.097656 67.53125 8.058594 C 68.257812 8.027344 68.976562 8.222656 69.589844 8.617188 C 70.21875 9.003906 70.679688 9.621094 70.871094 10.339844 C 71.035156 11.078125 70.875 11.847656 70.4375 12.457031 C 70.035156 13.074219 69.414062 13.507812 68.699219 13.667969 C 67.988281 13.800781 67.25 13.617188 66.679688 13.164062 C 66.398438 12.9375 66.1875 12.632812 66.070312 12.289062 C 65.953125 11.941406 65.984375 11.558594 66.160156 11.238281 C 66.324219 10.917969 66.59375 10.667969 66.921875 10.53125 C 67.246094 10.394531 67.609375 10.394531 67.929688 10.53125 C 67.613281 10.394531 67.253906 10.394531 66.9375 10.53125 C 66.628906 10.675781 66.382812 10.925781 66.238281 11.238281 C 65.976562 11.875 66.210938 12.609375 66.789062 12.976562 C 67.324219 13.367188 67.996094 13.519531 68.644531 13.382812 C 69.28125 13.21875 69.832031 12.8125 70.175781 12.246094 C 70.542969 11.707031 70.671875 11.042969 70.535156 10.402344 C 70.359375 9.773438 69.949219 9.234375 69.394531 8.898438 C 68.839844 8.550781 68.191406 8.378906 67.539062 8.410156 C 66.882812 8.457031 66.25 8.660156 65.683594 8.996094 C 64.550781 9.75 63.496094 10.621094 62.542969 11.597656 C 61.511719 12.554688 60.257812 13.238281 58.898438 13.582031 C 58.210938 13.753906 57.488281 13.753906 56.800781 13.582031 C 56.074219 13.449219 55.472656 12.941406 55.210938 12.246094 C 55.125 11.886719 55.171875 11.507812 55.335938 11.179688 C 55.5 10.851562 55.78125 10.597656 56.128906 10.472656 C 56.460938 10.335938 56.835938 10.359375 57.148438 10.539062 C 57.421875 10.742188 57.574219 11.070312 57.554688 11.414062 Z M 57.554688 11.414062 "/>
<path style=" stroke:none;fill-rule:nonzero;fill:rgb(52.54902%,52.54902%,52.54902%);fill-opacity:1;" d="M 21.453125 11.414062 C 21.421875 11.058594 21.578125 10.710938 21.863281 10.503906 C 22.175781 10.324219 22.550781 10.300781 22.878906 10.4375 C 23.226562 10.558594 23.511719 10.8125 23.675781 11.144531 C 23.832031 11.46875 23.871094 11.839844 23.789062 12.191406 C 23.523438 12.871094 22.925781 13.367188 22.214844 13.496094 C 21.527344 13.671875 20.804688 13.671875 20.117188 13.496094 C 18.753906 13.152344 17.5 12.46875 16.464844 11.511719 C 15.511719 10.535156 14.460938 9.664062 13.328125 8.914062 C 12.761719 8.574219 12.125 8.371094 11.46875 8.328125 C 10.816406 8.292969 10.171875 8.464844 9.621094 8.8125 C 9.0625 9.148438 8.652344 9.6875 8.472656 10.320312 C 8.335938 10.957031 8.464844 11.621094 8.828125 12.164062 C 9.175781 12.726562 9.726562 13.132812 10.363281 13.300781 C 11.011719 13.433594 11.683594 13.285156 12.214844 12.890625 C 12.796875 12.523438 13.03125 11.789062 12.769531 11.152344 C 12.625 10.839844 12.378906 10.589844 12.070312 10.445312 C 11.753906 10.3125 11.398438 10.3125 11.082031 10.445312 C 11.40625 10.3125 11.769531 10.3125 12.089844 10.445312 C 12.417969 10.582031 12.6875 10.832031 12.847656 11.152344 C 13.019531 11.472656 13.054688 11.855469 12.945312 12.203125 C 12.820312 12.546875 12.609375 12.847656 12.328125 13.082031 C 11.757812 13.535156 11.019531 13.71875 10.304688 13.582031 C 9.59375 13.421875 8.972656 12.988281 8.570312 12.375 C 8.132812 11.761719 7.972656 10.992188 8.136719 10.253906 C 8.335938 9.542969 8.796875 8.933594 9.425781 8.550781 C 10.050781 8.152344 10.785156 7.957031 11.523438 7.996094 C 12.238281 8.035156 12.933594 8.246094 13.550781 8.609375 C 14.707031 9.382812 15.769531 10.277344 16.730469 11.285156 C 17.726562 12.210938 18.925781 12.878906 20.226562 13.242188 C 20.875 13.410156 21.554688 13.410156 22.199219 13.242188 C 22.855469 13.152344 23.410156 12.714844 23.664062 12.097656 C 23.753906 11.78125 23.730469 11.445312 23.601562 11.144531 C 23.457031 10.84375 23.207031 10.605469 22.898438 10.480469 C 22.597656 10.332031 22.246094 10.332031 21.941406 10.480469 C 21.613281 10.667969 21.421875 11.03125 21.453125 11.414062 Z M 21.453125 11.414062 "/>
<path style=" stroke:none;fill-rule:nonzero;fill:rgb(52.54902%,52.54902%,52.54902%);fill-opacity:1;" d="M 69.6875 17.84375 L 9.320312 17.84375 C 9.316406 21.230469 6.59375 23.972656 3.238281 23.972656 L 3.238281 44.15625 C 6.597656 44.15625 9.320312 46.90625 9.320312 50.296875 L 69.6875 50.296875 C 69.683594 48.667969 70.324219 47.105469 71.464844 45.957031 C 72.601562 44.804688 74.148438 44.15625 75.761719 44.15625 L 75.761719 23.972656 C 72.40625 23.972656 69.6875 21.230469 69.6875 17.84375 Z M 20.488281 43.167969 L 11.640625 43.167969 L 11.640625 27.105469 L 13.699219 27.105469 L 13.699219 41.417969 L 20.488281 41.417969 Z M 41.882812 36.476562 C 41.882812 41.421875 39.308594 43.429688 35.863281 43.429688 C 32.613281 43.429688 30.15625 41.550781 30.15625 36.570312 L 30.15625 27.105469 L 32.253906 27.105469 L 32.253906 36.605469 C 32.253906 40.199219 33.835938 41.726562 35.957031 41.726562 C 38.3125 41.726562 39.824219 40.152344 39.824219 36.605469 L 39.824219 27.105469 L 41.925781 27.105469 Z M 62.398438 43.167969 L 60.367188 39.636719 C 59.542969 38.28125 59.023438 37.394531 58.527344 36.464844 L 58.484375 36.464844 C 58.03125 37.367188 57.582031 38.222656 56.757812 39.636719 L 54.847656 43.167969 L 52.476562 43.167969 L 57.375 35.042969 L 52.679688 27.105469 L 55.0625 27.105469 L 57.164062 30.867188 C 57.75 31.914062 58.199219 32.71875 58.625 33.582031 L 58.695312 33.582031 C 59.144531 32.628906 59.542969 31.894531 60.09375 30.867188 L 62.269531 27.105469 L 64.628906 27.105469 L 59.828125 34.917969 L 64.78125 43.167969 Z M 62.398438 43.167969 "/>
<path style=" stroke:none;fill-rule:nonzero;fill:rgb(52.54902%,52.54902%,52.54902%);fill-opacity:1;" d="M 11.417969 59.839844 L 9.535156 54.929688 L 10.234375 54.929688 L 11.496094 58.460938 C 11.601562 58.746094 11.683594 59.015625 11.753906 59.269531 C 11.832031 59 11.914062 58.730469 12.011719 58.460938 L 13.328125 54.929688 L 13.992188 54.929688 L 12.082031 59.839844 Z M 11.417969 59.839844 "/>
<path style=" stroke:none;fill-rule:nonzero;fill:rgb(52.54902%,52.54902%,52.54902%);fill-opacity:1;" d="M 16.371094 59.839844 L 16.371094 54.929688 L 17.015625 54.929688 L 17.015625 59.839844 Z M 16.371094 59.839844 "/>
<path style=" stroke:none;fill-rule:nonzero;fill:rgb(52.54902%,52.54902%,52.54902%);fill-opacity:1;" d="M 19.851562 59.839844 L 19.851562 54.929688 L 21.691406 54.929688 C 21.9375 54.921875 22.183594 54.941406 22.425781 54.980469 C 22.640625 55.007812 22.847656 55.085938 23.027344 55.207031 C 23.195312 55.328125 23.332031 55.488281 23.417969 55.679688 C 23.679688 56.253906 23.585938 56.933594 23.171875 57.410156 C 22.78125 57.734375 22.277344 57.890625 21.773438 57.839844 L 20.492188 57.839844 L 20.492188 59.839844 Z M 20.492188 57.296875 L 21.746094 57.296875 C 22.058594 57.328125 22.375 57.246094 22.632812 57.0625 C 22.8125 56.894531 22.910156 56.652344 22.894531 56.40625 C 22.898438 56.21875 22.84375 56.03125 22.738281 55.878906 C 22.644531 55.734375 22.5 55.628906 22.332031 55.585938 C 22.136719 55.550781 21.933594 55.539062 21.730469 55.546875 L 20.492188 55.546875 Z M 20.492188 57.296875 "/>
<path style=" stroke:none;fill-rule:nonzero;fill:rgb(52.54902%,52.54902%,52.54902%);fill-opacity:1;" d="M 29.316406 58.265625 L 29.925781 58.207031 C 29.945312 58.425781 30.011719 58.632812 30.128906 58.816406 C 30.25 58.988281 30.421875 59.121094 30.617188 59.199219 C 30.851562 59.292969 31.105469 59.339844 31.359375 59.339844 C 31.582031 59.34375 31.800781 59.308594 32.011719 59.234375 C 32.175781 59.171875 32.320312 59.066406 32.429688 58.929688 C 32.519531 58.804688 32.570312 58.65625 32.570312 58.503906 C 32.574219 58.359375 32.527344 58.214844 32.4375 58.101562 C 32.320312 57.96875 32.167969 57.867188 31.996094 57.8125 C 31.871094 57.761719 31.582031 57.6875 31.136719 57.574219 C 30.8125 57.515625 30.5 57.421875 30.199219 57.296875 C 29.988281 57.191406 29.804688 57.035156 29.671875 56.835938 C 29.5625 56.65625 29.503906 56.445312 29.503906 56.230469 C 29.503906 55.980469 29.578125 55.734375 29.714844 55.523438 C 29.863281 55.304688 30.078125 55.132812 30.324219 55.035156 C 30.609375 54.921875 30.914062 54.863281 31.21875 54.867188 C 31.546875 54.859375 31.867188 54.917969 32.171875 55.042969 C 32.429688 55.148438 32.648438 55.328125 32.808594 55.558594 C 32.957031 55.792969 33.039062 56.058594 33.046875 56.335938 L 32.429688 56.378906 C 32.417969 56.105469 32.292969 55.847656 32.085938 55.671875 C 31.84375 55.492188 31.542969 55.40625 31.242188 55.433594 C 30.941406 55.40625 30.644531 55.484375 30.394531 55.652344 C 30.226562 55.769531 30.128906 55.960938 30.128906 56.167969 C 30.125 56.332031 30.191406 56.492188 30.316406 56.605469 C 30.609375 56.789062 30.941406 56.910156 31.28125 56.957031 C 31.648438 57.027344 32.011719 57.132812 32.359375 57.269531 C 32.609375 57.375 32.828125 57.546875 32.988281 57.769531 C 33.128906 57.980469 33.199219 58.226562 33.191406 58.476562 C 33.1875 58.730469 33.109375 58.972656 32.96875 59.183594 C 32.8125 59.421875 32.589844 59.609375 32.332031 59.71875 C 32.039062 59.855469 31.71875 59.921875 31.394531 59.917969 C 31.015625 59.929688 30.640625 59.863281 30.289062 59.71875 C 30.003906 59.601562 29.757812 59.402344 29.589844 59.140625 C 29.417969 58.878906 29.324219 58.578125 29.316406 58.265625 Z M 29.316406 58.265625 "/>
<path style=" stroke:none;fill-rule:nonzero;fill:rgb(52.54902%,52.54902%,52.54902%);fill-opacity:1;" d="M 35.78125 59.839844 L 35.78125 54.929688 L 39.28125 54.929688 L 39.28125 55.507812 L 36.410156 55.507812 L 36.410156 57.015625 L 39.113281 57.015625 L 39.113281 57.585938 L 36.425781 57.585938 L 36.425781 59.261719 L 39.40625 59.261719 L 39.40625 59.839844 Z M 35.78125 59.839844 "/>
<path style=" stroke:none;fill-rule:nonzero;fill:rgb(52.54902%,52.54902%,52.54902%);fill-opacity:1;" d="M 41.980469 59.839844 L 41.980469 54.929688 L 44.136719 54.929688 C 44.46875 54.914062 44.804688 54.960938 45.121094 55.066406 C 45.351562 55.152344 45.539062 55.316406 45.660156 55.53125 C 45.792969 55.742188 45.863281 55.988281 45.863281 56.238281 C 45.871094 56.5625 45.75 56.878906 45.527344 57.113281 C 45.246094 57.382812 44.878906 57.546875 44.492188 57.574219 C 44.632812 57.632812 44.765625 57.714844 44.882812 57.8125 C 45.085938 58.007812 45.265625 58.230469 45.414062 58.46875 L 46.261719 59.804688 L 45.480469 59.804688 L 44.84375 58.78125 C 44.652344 58.492188 44.492188 58.265625 44.375 58.074219 C 44.285156 57.945312 44.171875 57.832031 44.042969 57.742188 C 43.957031 57.679688 43.859375 57.636719 43.757812 57.613281 C 43.636719 57.601562 43.515625 57.601562 43.394531 57.613281 L 42.679688 57.613281 L 42.679688 59.839844 Z M 42.679688 57.097656 L 44.078125 57.097656 C 44.316406 57.105469 44.550781 57.074219 44.777344 57.007812 C 44.9375 56.957031 45.070312 56.851562 45.15625 56.710938 C 45.238281 56.578125 45.28125 56.429688 45.28125 56.273438 C 45.289062 56.050781 45.199219 55.839844 45.039062 55.695312 C 44.808594 55.527344 44.527344 55.449219 44.246094 55.472656 L 42.679688 55.472656 Z M 42.679688 57.097656 "/>
<path style=" stroke:none;fill-rule:nonzero;fill:rgb(52.54902%,52.54902%,52.54902%);fill-opacity:1;" d="M 49.867188 59.839844 L 47.984375 54.929688 L 48.683594 54.929688 L 49.949219 58.460938 C 50.054688 58.746094 50.136719 59.015625 50.207031 59.269531 C 50.277344 59 50.371094 58.730469 50.46875 58.460938 L 51.78125 54.929688 L 52.441406 54.929688 L 50.523438 59.839844 Z M 49.867188 59.839844 "/>
<path style=" stroke:none;fill-rule:nonzero;fill:rgb(52.54902%,52.54902%,52.54902%);fill-opacity:1;" d="M 54.8125 59.839844 L 54.8125 54.929688 L 55.457031 54.929688 L 55.457031 59.839844 Z M 54.8125 59.839844 "/>
<path style=" stroke:none;fill-rule:nonzero;fill:rgb(52.54902%,52.54902%,52.54902%);fill-opacity:1;" d="M 61.761719 58.117188 L 62.402344 58.285156 C 62.3125 58.757812 62.066406 59.1875 61.703125 59.5 C 61.335938 59.789062 60.882812 59.941406 60.417969 59.925781 C 59.96875 59.945312 59.527344 59.832031 59.144531 59.601562 C 58.804688 59.371094 58.542969 59.046875 58.386719 58.667969 C 58.21875 58.25 58.132812 57.800781 58.136719 57.347656 C 58.125 56.886719 58.226562 56.425781 58.421875 56.011719 C 58.601562 55.660156 58.878906 55.371094 59.21875 55.175781 C 59.582031 54.976562 59.988281 54.875 60.402344 54.882812 C 60.839844 54.867188 61.269531 55 61.628906 55.253906 C 61.972656 55.515625 62.222656 55.890625 62.328125 56.316406 L 61.695312 56.464844 C 61.617188 56.15625 61.441406 55.882812 61.199219 55.679688 C 60.964844 55.511719 60.683594 55.425781 60.394531 55.4375 C 60.070312 55.421875 59.75 55.5 59.472656 55.671875 C 59.226562 55.847656 59.039062 56.09375 58.941406 56.378906 C 58.832031 56.691406 58.777344 57.015625 58.773438 57.347656 C 58.765625 57.71875 58.824219 58.085938 58.949219 58.433594 C 59.046875 58.730469 59.25 58.980469 59.515625 59.140625 C 59.761719 59.296875 60.046875 59.375 60.339844 59.375 C 60.671875 59.382812 60.996094 59.269531 61.257812 59.054688 C 61.523438 58.808594 61.703125 58.476562 61.761719 58.117188 Z M 61.761719 58.117188 "/>
<path style=" stroke:none;fill-rule:nonzero;fill:rgb(52.54902%,52.54902%,52.54902%);fill-opacity:1;" d="M 64.910156 59.839844 L 64.910156 54.929688 L 68.40625 54.929688 L 68.40625 55.507812 L 65.539062 55.507812 L 65.539062 57.015625 L 68.226562 57.015625 L 68.226562 57.585938 L 65.550781 57.585938 L 65.550781 59.261719 L 68.566406 59.261719 L 68.566406 59.839844 Z M 64.910156 59.839844 "/>
<path style=" stroke:none;fill-rule:nonzero;fill:rgb(52.54902%,52.54902%,52.54902%);fill-opacity:1;" d="M 38.417969 1.839844 C 38.414062 1.796875 38.382812 1.761719 38.34375 1.75 L 37.984375 1.714844 C 37.984375 1.714844 37.984375 1.648438 37.984375 1.613281 L 39.347656 1.613281 C 39.347656 1.613281 39.347656 1.707031 39.347656 1.714844 L 38.878906 1.757812 L 38.878906 6.277344 L 40.757812 6.277344 L 40.894531 5.183594 L 41.023438 5.183594 L 40.925781 6.433594 L 37.976562 6.433594 C 37.976562 6.398438 37.976562 6.371094 37.976562 6.335938 L 38.335938 6.285156 C 38.375 6.273438 38.40625 6.242188 38.410156 6.199219 Z M 38.417969 1.839844 "/>
<path style=" stroke:none;fill-rule:nonzero;fill:rgb(52.54902%,52.54902%,52.54902%);fill-opacity:1;" d="M 39.273438 52.351562 L 7.554688 52.421875 L 7.453125 52.421875 L 7.453125 52.351562 C 7.453125 51.460938 7.453125 50.542969 7.417969 49.667969 C 7.199219 47.859375 5.878906 46.386719 4.121094 45.992188 C 3.683594 45.914062 3.242188 45.886719 2.796875 45.902344 L 1.398438 45.902344 L 1.398438 21.898438 L 2.796875 21.898438 C 3.21875 21.90625 3.640625 21.882812 4.058594 21.820312 C 4.875 21.652344 5.625 21.25 6.21875 20.660156 C 6.796875 20.046875 7.183594 19.277344 7.324219 18.441406 C 7.390625 18.023438 7.417969 17.601562 7.402344 17.179688 L 7.402344 15.75 L 7.5625 15.75 L 39.511719 15.707031 L 71.457031 15.75 L 71.613281 15.75 L 71.613281 17.207031 C 71.59375 17.628906 71.621094 18.054688 71.6875 18.472656 C 72.003906 20.164062 73.316406 21.488281 74.992188 21.8125 C 75.40625 21.878906 75.824219 21.910156 76.242188 21.898438 L 77.664062 21.898438 L 77.664062 45.910156 L 76.207031 45.910156 C 75.757812 45.886719 75.308594 45.917969 74.863281 45.992188 C 74.007812 46.179688 73.230469 46.632812 72.640625 47.285156 C 72.046875 47.933594 71.671875 48.757812 71.570312 49.632812 C 71.5 50.507812 71.570312 51.425781 71.570312 52.316406 L 71.570312 52.421875 L 71.472656 52.421875 L 39.75 52.351562 L 71.449219 52.253906 L 71.367188 52.351562 C 71.367188 51.449219 71.367188 50.566406 71.367188 49.644531 C 71.46875 48.722656 71.863281 47.855469 72.484375 47.171875 C 73.109375 46.460938 73.945312 45.972656 74.863281 45.773438 C 75.308594 45.691406 75.761719 45.660156 76.214844 45.675781 L 77.550781 45.675781 L 77.441406 45.796875 L 77.441406 22.046875 L 77.585938 22.195312 L 76.265625 22.195312 C 75.828125 22.214844 75.386719 22.1875 74.957031 22.117188 C 73.140625 21.785156 71.710938 20.359375 71.367188 18.527344 C 71.300781 18.089844 71.273438 17.648438 71.289062 17.207031 L 71.289062 15.90625 L 71.449219 16.070312 L 39.503906 16.105469 L 7.554688 16.0625 L 7.710938 15.90625 L 7.710938 17.207031 C 7.726562 17.648438 7.699219 18.089844 7.625 18.527344 C 7.28125 20.34375 5.878906 21.761719 4.078125 22.109375 C 3.65625 22.175781 3.226562 22.199219 2.796875 22.1875 L 1.476562 22.1875 L 1.625 22.039062 L 1.625 45.789062 L 1.503906 45.667969 L 2.796875 45.667969 C 3.269531 45.652344 3.738281 45.6875 4.199219 45.773438 C 5.097656 45.972656 5.910156 46.449219 6.527344 47.136719 C 7.152344 47.824219 7.546875 48.6875 7.65625 49.609375 C 7.722656 50.527344 7.65625 51.414062 7.65625 52.316406 L 7.554688 52.21875 Z M 39.273438 52.351562 "/>
<path style=" stroke:none;fill-rule:nonzero;fill:rgb(52.54902%,52.54902%,52.54902%);fill-opacity:1;" d="M 39.503906 0.0742188 C 40.597656 0.0664062 41.652344 0.496094 42.433594 1.269531 C 43.242188 2.050781 43.707031 3.128906 43.726562 4.257812 C 43.746094 5.386719 43.316406 6.480469 42.53125 7.289062 C 41.742188 8.121094 40.648438 8.59375 39.503906 8.59375 C 38.359375 8.59375 37.265625 8.121094 36.472656 7.289062 C 35.691406 6.480469 35.261719 5.386719 35.28125 4.257812 C 35.300781 3.128906 35.765625 2.050781 36.570312 1.269531 C 37.355469 0.496094 38.410156 0.0664062 39.503906 0.0742188 Z M 39.503906 0.0742188 C 38.417969 0.0859375 37.378906 0.53125 36.613281 1.3125 C 35.867188 2.09375 35.464844 3.144531 35.488281 4.230469 C 35.488281 6.46875 37.285156 8.285156 39.503906 8.285156 C 41.722656 8.285156 43.519531 6.46875 43.519531 4.230469 C 43.542969 3.144531 43.136719 2.09375 42.394531 1.3125 C 41.628906 0.53125 40.589844 0.0859375 39.503906 0.0742188 Z M 39.503906 0.0742188 "/>
</g>
</svg>
