<svg 
  xmlns="http://www.w3.org/2000/svg"
  xmlns:xlink="http://www.w3.org/1999/xlink"
  width="60px" height="60px">
  <path fill-rule="evenodd"  fill="rgb(254, 62, 87)"
  d="M0.0,0.0 L59.999,0.0 L59.999,59.999 L0.0,59.999 L0.0,0.0 Z"/>
  <path fill-rule="evenodd"  fill="rgb(255, 255, 255)"
  d="M42.494,32.208 L38.345,36.974 C38.155,37.194 37.935,37.388 37.693,37.552 C37.688,37.556 37.682,37.559 37.676,37.563 C37.1,37.984 36.151,38.198 35.151,38.198 L28.995,38.198 C28.571,38.198 28.142,38.222 27.721,38.271 L27.25,38.347 L27.329,38.635 C27.426,38.727 27.482,38.854 27.485,38.985 C27.487,39.119 27.434,39.250 27.339,39.345 L23.845,42.845 C23.745,42.946 23.612,42.996 23.479,42.996 C23.352,42.996 23.225,42.951 23.126,42.858 L17.161,37.312 C17.62,37.221 17.5,37.94 17.2,36.962 C16.999,36.829 17.51,36.699 17.145,36.604 L20.672,33.29 C20.768,32.932 20.901,32.876 21.39,32.875 C21.40,32.875 21.41,32.875 21.42,32.875 C21.175,32.875 21.305,32.926 21.400,33.17 L22.126,33.705 C22.404,33.323 22.844,32.800 23.448,32.319 C24.932,31.136 26.688,30.773 28.525,31.270 C29.230,31.460 29.974,31.557 30.737,31.557 L34.784,31.557 C35.372,31.557 35.892,31.784 36.248,32.196 C36.321,32.281 36.386,32.372 36.443,32.468 L39.334,29.676 C39.757,29.262 40.325,29.52 40.931,29.81 C41.465,29.109 41.994,29.326 42.383,29.676 C43.160,30.376 43.204,31.392 42.494,32.208 ZM21.54,34.81 L18.239,36.935 L23.465,41.795 L26.251,39.5 L21.54,34.81 ZM41.690,30.411 C41.274,30.35 40.531,29.920 40.55,30.384 L36.726,33.601 C36.712,34.81 36.542,34.530 36.244,34.873 C35.887,35.283 35.362,35.511 34.768,35.511 L31.245,35.511 C30.963,35.511 30.734,35.287 30.734,35.11 C30.734,34.736 30.963,34.512 31.245,34.512 L34.768,34.512 C35.65,34.512 35.300,34.415 35.465,34.226 C35.617,34.51 35.704,33.798 35.704,33.533 C35.704,33.170 35.510,32.555 34.784,32.555 L30.737,32.555 C29.882,32.555 29.46,32.446 28.252,32.232 C26.727,31.820 25.328,32.110 24.94,33.92 C23.501,33.565 23.92,34.86 22.869,34.409 L26.74,37.446 L27.605,37.277 C28.63,37.226 28.531,37.199 28.994,37.199 L35.151,37.199 C35.949,37.199 36.610,37.41 37.117,36.727 C37.284,36.613 37.435,36.479 37.566,36.328 L41.715,31.561 C42.194,31.11 41.905,30.603 41.690,30.411 ZM29.274,35.498 C29.235,35.508 29.196,35.512 29.157,35.512 C28.925,35.512 28.715,35.357 28.660,35.126 L28.655,35.106 C28.590,34.838 28.761,34.569 29.36,34.507 C29.311,34.443 29.586,34.610 29.650,34.878 L29.655,34.898 C29.720,35.167 29.549,35.436 29.274,35.498 ZM38.314,28.532 L33.331,28.532 C33.60,28.532 32.809,28.447 32.605,28.301 C32.400,28.447 32.149,28.532 31.878,28.532 L26.895,28.532 C26.623,28.532 26.373,28.447 26.168,28.301 C25.964,28.447 25.713,28.532 25.442,28.532 L20.459,28.532 C19.776,28.532 19.221,27.990 19.221,27.323 L19.221,25.55 C19.221,24.36 19.805,23.150 20.679,22.714 C20.255,22.215 20.0,21.575 20.0,20.878 C20.0,19.290 21.324,17.997 22.950,17.997 C24.576,17.997 25.900,19.290 25.900,20.878 C25.900,21.575 25.645,22.215 25.221,22.714 C25.599,22.903 25.922,23.176 26.168,23.507 C26.414,23.176 26.737,22.903 27.115,22.714 C26.692,22.215 26.436,21.575 26.436,20.878 C26.436,19.290 27.760,17.997 29.386,17.997 C31.13,17.997 32.336,19.290 32.336,20.878 C32.336,21.575 32.81,22.215 31.657,22.714 C32.35,22.903 32.359,23.176 32.605,23.506 C32.850,23.176 33.174,22.903 33.552,22.714 C33.128,22.215 32.873,21.575 32.873,20.878 C32.873,19.290 34.196,17.997 35.823,17.997 C37.449,17.997 38.773,19.290 38.773,20.878 C38.773,21.575 38.517,22.215 38.94,22.714 C38.968,23.150 39.552,24.36 39.552,25.55 L39.552,27.323 C39.552,27.990 38.997,28.532 38.314,28.532 ZM22.950,18.996 C21.888,18.996 21.23,19.840 21.23,20.878 C21.23,21.915 21.888,22.760 22.950,22.760 C24.13,22.760 24.877,21.915 24.877,20.878 C24.877,19.840 24.13,18.996 22.950,18.996 ZM25.657,25.55 C25.657,24.252 25.73,23.584 24.278,23.448 C23.879,23.646 23.428,23.758 22.950,23.758 C22.472,23.758 22.21,23.646 21.622,23.448 C20.827,23.584 20.243,24.253 20.243,25.55 L20.243,27.323 C20.243,27.439 20.340,27.534 20.459,27.534 L25.442,27.534 C25.560,27.534 25.657,27.439 25.657,27.323 L25.657,25.55 ZM29.386,18.996 C28.324,18.996 27.459,19.840 27.459,20.878 C27.459,21.915 28.324,22.760 29.386,22.760 C30.449,22.760 31.313,21.915 31.313,20.878 C31.313,19.840 30.449,18.996 29.386,18.996 ZM32.93,25.55 C32.93,24.252 31.509,23.584 30.715,23.448 C30.315,23.646 29.864,23.758 29.386,23.758 C28.909,23.758 28.458,23.646 28.58,23.448 C27.264,23.584 26.680,24.253 26.680,25.55 L26.680,27.323 C26.680,27.439 26.776,27.534 26.895,27.534 L31.878,27.534 C31.997,27.534 32.93,27.439 32.93,27.323 L32.93,25.55 ZM35.823,18.996 C34.760,18.996 33.896,19.840 33.896,20.878 C33.896,21.915 34.760,22.760 35.823,22.760 C36.885,22.760 37.750,21.915 37.750,20.878 C37.750,19.840 36.885,18.996 35.823,18.996 ZM38.529,25.55 C38.529,24.252 37.946,23.584 37.151,23.448 C36.752,23.646 36.301,23.758 35.823,23.758 C35.345,23.758 34.894,23.646 34.494,23.448 C33.700,23.584 33.116,24.253 33.116,25.55 L33.116,27.323 C33.116,27.439 33.213,27.534 33.331,27.534 L38.314,27.534 C38.433,27.534 38.529,27.439 38.529,27.323 L38.529,25.55 Z"/>
</svg>
