<?xml version="1.0" encoding="UTF-8"?>
<svg xmlns="http://www.w3.org/2000/svg" xmlns:xlink="http://www.w3.org/1999/xlink" width="33px" height="20px" viewBox="0 0 33 20" version="1.1">
<g id="surface1">
<path style=" stroke:none;fill-rule:nonzero;fill:rgb(100%,71.372549%,0%);fill-opacity:1;" d="M 33 10 C 33 15.484375 28.566406 19.929688 23.101562 19.929688 C 17.632812 19.929688 13.199219 15.484375 13.199219 10 C 13.199219 4.515625 17.632812 0.0703125 23.101562 0.0703125 C 28.566406 0.0703125 33 4.515625 33 10 Z M 33 10 "/>
<path style=" stroke:none;fill-rule:nonzero;fill:rgb(96.862745%,59.607843%,11.372549%);fill-opacity:1;" d="M 23.101562 0.0703125 C 28.5625 0.0859375 32.984375 4.523438 33 10 C 33 15.484375 28.566406 19.929688 23.101562 19.929688 C 17.632812 19.929688 13.199219 15.484375 13.199219 10 "/>
<path style=" stroke:none;fill-rule:nonzero;fill:rgb(100%,52.156863%,0%);fill-opacity:1;" d="M 23.101562 0.0703125 C 28.5625 0.0859375 32.984375 4.523438 33 10 C 33 12.632812 31.960938 15.160156 30.101562 17.023438 C 28.246094 18.886719 25.726562 19.933594 23.101562 19.929688 "/>
<path style=" stroke:none;fill-rule:nonzero;fill:rgb(100%,31.372549%,31.372549%);fill-opacity:1;" d="M 9.796875 0.0703125 C 4.328125 0.0976562 -0.078125 4.566406 -0.0507812 10.050781 C -0.0234375 15.535156 4.433594 19.960938 9.898438 19.929688 C 12.355469 19.921875 14.722656 19.003906 16.546875 17.355469 C 16.90625 17.035156 17.238281 16.679688 17.542969 16.304688 L 15.484375 16.304688 C 15.222656 15.984375 14.976562 15.652344 14.75 15.304688 L 18.257812 15.304688 C 18.480469 14.972656 18.671875 14.621094 18.832031 14.253906 L 14.195312 14.253906 C 14.023438 13.917969 13.882812 13.566406 13.777344 13.207031 L 19.210938 13.207031 C 19.542969 12.1875 19.71875 11.121094 19.730469 10.046875 C 19.714844 9.34375 19.648438 8.640625 19.527344 7.949219 L 13.460938 7.949219 C 13.527344 7.59375 13.613281 7.242188 13.722656 6.894531 L 19.167969 6.894531 C 19.0625 6.535156 18.921875 6.183594 18.75 5.851562 L 14.140625 5.851562 C 14.3125 5.488281 14.503906 5.136719 14.714844 4.796875 L 18.230469 4.796875 C 18.011719 4.414062 17.746094 4.058594 17.441406 3.742188 L 15.503906 3.742188 C 15.8125 3.386719 16.144531 3.050781 16.5 2.746094 C 14.6875 1.070312 12.308594 0.152344 9.84375 0.171875 C 9.84375 0.0703125 9.84375 0.0703125 9.796875 0.0703125 Z M 9.796875 0.0703125 "/>
<path style=" stroke:none;fill-rule:nonzero;fill:rgb(89.803922%,15.686275%,21.176471%);fill-opacity:1;" d="M 0 10 C 0 12.632812 1.039062 15.160156 2.898438 17.023438 C 4.753906 18.886719 7.273438 19.933594 9.898438 19.929688 C 12.355469 19.921875 14.722656 19.003906 16.546875 17.355469 C 16.90625 17.035156 17.238281 16.679688 17.542969 16.304688 L 15.484375 16.304688 C 15.222656 15.984375 14.976562 15.652344 14.75 15.304688 L 18.257812 15.304688 C 18.480469 14.972656 18.671875 14.621094 18.832031 14.253906 L 14.195312 14.253906 C 14.023438 13.917969 13.882812 13.566406 13.777344 13.207031 L 19.210938 13.207031 C 19.542969 12.1875 19.71875 11.121094 19.730469 10.046875 C 19.714844 9.34375 19.648438 8.640625 19.527344 7.949219 L 13.460938 7.949219 C 13.527344 7.59375 13.613281 7.242188 13.722656 6.894531 L 19.167969 6.894531 C 19.0625 6.535156 18.921875 6.183594 18.75 5.851562 L 14.140625 5.851562 C 14.3125 5.488281 14.503906 5.136719 14.714844 4.796875 L 18.230469 4.796875 C 18.011719 4.414062 17.746094 4.058594 17.441406 3.742188 L 15.503906 3.742188 C 15.8125 3.386719 16.144531 3.050781 16.5 2.746094 C 14.6875 1.070312 12.308594 0.152344 9.84375 0.171875 L 9.796875 0.171875 "/>
<path style=" stroke:none;fill-rule:nonzero;fill:rgb(79.607843%,12.54902%,14.901961%);fill-opacity:1;" d="M 9.898438 19.929688 C 12.355469 19.921875 14.722656 19.003906 16.546875 17.355469 C 16.90625 17.035156 17.238281 16.679688 17.542969 16.304688 L 15.484375 16.304688 C 15.222656 15.984375 14.976562 15.652344 14.75 15.304688 L 18.257812 15.304688 C 18.480469 14.972656 18.671875 14.621094 18.832031 14.253906 L 14.195312 14.253906 C 14.023438 13.917969 13.882812 13.566406 13.777344 13.207031 L 19.210938 13.207031 C 19.542969 12.1875 19.71875 11.121094 19.730469 10.046875 C 19.714844 9.34375 19.648438 8.640625 19.527344 7.949219 L 13.460938 7.949219 C 13.527344 7.59375 13.613281 7.242188 13.722656 6.894531 L 19.167969 6.894531 C 19.0625 6.535156 18.921875 6.183594 18.75 5.851562 L 14.140625 5.851562 C 14.3125 5.488281 14.503906 5.136719 14.714844 4.796875 L 18.230469 4.796875 C 18.011719 4.414062 17.746094 4.058594 17.441406 3.742188 L 15.503906 3.742188 C 15.8125 3.386719 16.144531 3.050781 16.5 2.746094 C 14.6875 1.070312 12.308594 0.152344 9.84375 0.171875 L 9.796875 0.171875 "/>
<path style=" stroke:none;fill-rule:nonzero;fill:rgb(100%,100%,100%);fill-opacity:1;" d="M 13.40625 12.519531 L 13.5625 11.632812 C 13.476562 11.652344 13.390625 11.667969 13.304688 11.679688 C 12.9375 11.679688 12.882812 11.472656 12.9375 11.363281 L 13.246094 9.523438 L 13.824219 9.523438 L 13.980469 8.527344 L 13.460938 8.527344 L 13.5625 7.894531 L 12.519531 7.894531 C 12.519531 7.894531 11.890625 11.335938 11.890625 11.78125 C 11.855469 12.019531 11.929688 12.257812 12.09375 12.433594 C 12.257812 12.605469 12.488281 12.695312 12.726562 12.675781 C 12.960938 12.675781 13.195312 12.621094 13.40625 12.519531 Z M 13.40625 12.519531 "/>
<path style=" stroke:none;fill-rule:nonzero;fill:rgb(100%,100%,100%);fill-opacity:1;" d="M 13.777344 10.839844 C 13.722656 11.34375 13.894531 11.84375 14.253906 12.199219 C 14.609375 12.554688 15.105469 12.730469 15.609375 12.675781 C 15.980469 12.699219 16.355469 12.644531 16.707031 12.519531 L 16.917969 11.519531 C 16.570312 11.671875 16.199219 11.761719 15.820312 11.78125 C 14.667969 11.78125 14.875 10.941406 14.875 10.941406 L 17.019531 10.941406 C 17.085938 10.632812 17.128906 10.316406 17.152344 10 C 17.183594 9.585938 17.03125 9.179688 16.742188 8.886719 C 16.449219 8.59375 16.046875 8.441406 15.636719 8.472656 C 14.558594 8.367188 13.777344 9.523438 13.777344 10.839844 Z M 15.609375 9.320312 C 16.183594 9.320312 16.082031 10.007812 16.082031 10.046875 L 14.929688 10.046875 C 14.929688 10 15.03125 9.320312 15.609375 9.320312 Z M 15.609375 9.320312 "/>
<path style=" stroke:none;fill-rule:nonzero;fill:rgb(100%,100%,100%);fill-opacity:1;" d="M 22.261719 12.519531 L 22.46875 11.363281 C 22.191406 11.507812 21.886719 11.597656 21.578125 11.632812 C 20.84375 11.632812 20.535156 11.054688 20.535156 10.417969 C 20.535156 9.160156 21.160156 8.472656 21.90625 8.472656 C 22.242188 8.484375 22.570312 8.59375 22.847656 8.789062 L 23.003906 7.6875 C 22.621094 7.53125 22.214844 7.445312 21.804688 7.425781 C 20.597656 7.425781 19.394531 8.472656 19.394531 10.476562 C 19.394531 11.78125 20.019531 12.675781 21.273438 12.675781 C 21.609375 12.660156 21.941406 12.605469 22.261719 12.519531 Z M 22.261719 12.519531 "/>
<path style=" stroke:none;fill-rule:nonzero;fill:rgb(100%,100%,100%);fill-opacity:1;" d="M 7.648438 8.367188 C 7.21875 8.367188 6.792969 8.4375 6.386719 8.582031 L 6.230469 9.476562 C 6.597656 9.332031 6.988281 9.257812 7.382812 9.261719 C 7.753906 9.261719 8.066406 9.320312 8.066406 9.628906 C 8.066406 9.9375 8.011719 9.898438 8.011719 9.898438 L 7.546875 9.898438 C 6.660156 9.898438 5.660156 10.261719 5.660156 11.472656 C 5.617188 11.761719 5.703125 12.054688 5.894531 12.277344 C 6.085938 12.5 6.363281 12.628906 6.65625 12.628906 C 7.070312 12.621094 7.460938 12.449219 7.753906 12.152344 L 7.699219 12.574219 L 8.644531 12.574219 L 9.0625 9.683594 C 9.085938 9.308594 8.941406 8.945312 8.667969 8.6875 C 8.394531 8.433594 8.019531 8.316406 7.648438 8.367188 Z M 7.855469 10.738281 C 7.855469 10.894531 7.753906 11.734375 7.121094 11.734375 C 7.007812 11.738281 6.902344 11.695312 6.820312 11.617188 C 6.742188 11.535156 6.699219 11.425781 6.703125 11.316406 C 6.703125 11.054688 6.859375 10.679688 7.648438 10.679688 C 7.714844 10.710938 7.785156 10.726562 7.855469 10.738281 Z M 7.855469 10.738281 "/>
<path style=" stroke:none;fill-rule:nonzero;fill:rgb(100%,100%,100%);fill-opacity:1;" d="M 10.058594 12.628906 C 10.453125 12.6875 10.855469 12.570312 11.160156 12.304688 C 11.460938 12.039062 11.632812 11.65625 11.628906 11.253906 C 11.628906 9.9375 10.375 10.199219 10.375 9.675781 C 10.375 9.414062 10.578125 9.3125 10.949219 9.3125 C 11.101562 9.3125 11.675781 9.359375 11.675781 9.359375 L 11.835938 8.417969 C 11.507812 8.347656 11.175781 8.316406 10.839844 8.328125 C 10.058594 8.328125 9.269531 8.636719 9.269531 9.703125 C 9.269531 10.914062 10.578125 10.804688 10.578125 11.28125 C 10.578125 11.597656 10.214844 11.652344 9.949219 11.652344 C 9.628906 11.644531 9.3125 11.589844 9.007812 11.492188 L 8.851562 12.4375 C 8.917969 12.519531 9.164062 12.628906 10.058594 12.628906 Z M 10.058594 12.628906 "/>
<path style=" stroke:none;fill-rule:nonzero;fill:rgb(100%,100%,100%);fill-opacity:1;" d="M 30.957031 7.527344 L 30.742188 8.945312 C 30.496094 8.644531 30.136719 8.457031 29.746094 8.425781 C 28.808594 8.425781 27.972656 9.582031 27.972656 10.941406 C 27.972656 11.78125 28.390625 12.675781 29.273438 12.675781 C 29.652344 12.675781 30.011719 12.527344 30.277344 12.257812 L 30.222656 12.628906 L 31.269531 12.628906 L 32.054688 7.585938 Z M 30.480469 10.316406 C 30.480469 10.894531 30.222656 11.632812 29.644531 11.632812 C 29.273438 11.632812 29.070312 11.316406 29.070312 10.785156 C 29.070312 9.945312 29.433594 9.40625 29.90625 9.40625 C 30.277344 9.421875 30.480469 9.703125 30.480469 10.316406 Z M 30.480469 10.316406 "/>
<path style=" stroke:none;fill-rule:nonzero;fill:rgb(100%,100%,100%);fill-opacity:1;" d="M 1.933594 12.574219 L 2.566406 8.789062 L 2.667969 12.574219 L 3.429688 12.574219 L 4.800781 8.789062 L 4.226562 12.574219 L 5.324219 12.574219 L 6.160156 7.527344 L 4.398438 7.527344 L 3.355469 10.625 L 3.300781 7.527344 L 1.785156 7.527344 L 0.941406 12.574219 Z M 1.933594 12.574219 "/>
<path style=" stroke:none;fill-rule:nonzero;fill:rgb(100%,100%,100%);fill-opacity:1;" d="M 18.175781 12.574219 C 18.488281 10.839844 18.539062 9.421875 19.273438 9.683594 C 19.335938 9.265625 19.460938 8.855469 19.640625 8.472656 L 19.429688 8.472656 C 18.964844 8.472656 18.59375 9.105469 18.59375 9.105469 L 18.695312 8.527344 L 17.699219 8.527344 L 17.015625 12.65625 L 18.167969 12.65625 Z M 18.175781 12.574219 "/>
<path style=" stroke:none;fill-rule:nonzero;fill:rgb(100%,100%,100%);fill-opacity:1;" d="M 24.699219 8.367188 C 24.269531 8.367188 23.839844 8.4375 23.4375 8.582031 L 23.285156 9.476562 C 23.652344 9.332031 24.042969 9.257812 24.4375 9.261719 C 24.800781 9.261719 25.125 9.320312 25.125 9.628906 C 25.125 9.9375 25.070312 9.898438 25.070312 9.898438 L 24.5625 9.898438 C 23.675781 9.898438 22.679688 10.261719 22.679688 11.472656 C 22.679688 12.414062 23.304688 12.628906 23.675781 12.628906 C 24.089844 12.621094 24.484375 12.453125 24.773438 12.152344 L 24.71875 12.574219 L 25.664062 12.574219 L 26.070312 9.703125 C 26.105469 9.332031 25.96875 8.964844 25.703125 8.707031 C 25.4375 8.449219 25.066406 8.324219 24.699219 8.367188 Z M 24.960938 10.738281 C 24.960938 10.894531 24.855469 11.734375 24.226562 11.734375 C 24.113281 11.738281 24.003906 11.695312 23.925781 11.617188 C 23.84375 11.535156 23.804688 11.425781 23.808594 11.316406 C 23.808594 11.054688 23.964844 10.679688 24.746094 10.679688 C 24.875 10.738281 24.875 10.738281 24.933594 10.738281 Z M 24.960938 10.738281 "/>
<path style=" stroke:none;fill-rule:nonzero;fill:rgb(100%,100%,100%);fill-opacity:1;" d="M 26.976562 12.574219 C 27.285156 10.839844 27.339844 9.421875 28.074219 9.683594 C 28.132812 9.265625 28.257812 8.855469 28.4375 8.472656 L 28.230469 8.472656 C 27.757812 8.472656 27.394531 9.105469 27.394531 9.105469 L 27.496094 8.527344 L 26.503906 8.527344 L 25.816406 12.65625 L 26.96875 12.65625 Z M 26.976562 12.574219 "/>
<path style=" stroke:none;fill-rule:nonzero;fill:rgb(86.27451%,89.803922%,89.803922%);fill-opacity:1;" d="M 11.785156 11.769531 C 11.753906 12.003906 11.828125 12.246094 11.992188 12.417969 C 12.152344 12.59375 12.386719 12.683594 12.625 12.664062 C 12.890625 12.664062 13.160156 12.613281 13.40625 12.503906 L 13.5625 11.617188 C 13.476562 11.636719 13.390625 11.65625 13.304688 11.664062 C 12.9375 11.664062 12.882812 11.460938 12.9375 11.347656 L 13.246094 9.511719 L 13.824219 9.511719 L 13.980469 8.511719 L 13.460938 8.511719 L 13.5625 7.878906 "/>
<path style=" stroke:none;fill-rule:nonzero;fill:rgb(86.27451%,89.803922%,89.803922%);fill-opacity:1;" d="M 14.296875 10.839844 C 14.296875 12.3125 14.769531 12.675781 15.609375 12.675781 C 15.980469 12.699219 16.355469 12.644531 16.707031 12.519531 L 16.917969 11.519531 C 16.570312 11.671875 16.199219 11.761719 15.820312 11.78125 C 14.667969 11.78125 14.875 10.941406 14.875 10.941406 L 17.019531 10.941406 C 17.085938 10.632812 17.128906 10.316406 17.152344 10 C 17.183594 9.585938 17.03125 9.179688 16.742188 8.886719 C 16.449219 8.59375 16.046875 8.441406 15.636719 8.472656 C 14.558594 8.367188 14.296875 9.523438 14.296875 10.839844 Z M 15.609375 9.320312 C 16.183594 9.320312 16.292969 10.007812 16.292969 10.046875 L 14.921875 10.046875 C 14.929688 10 15.03125 9.320312 15.609375 9.320312 Z M 15.609375 9.320312 "/>
<path style=" stroke:none;fill-rule:nonzero;fill:rgb(86.27451%,89.803922%,89.803922%);fill-opacity:1;" d="M 22.261719 12.519531 L 22.46875 11.363281 C 22.191406 11.507812 21.886719 11.597656 21.578125 11.632812 C 20.84375 11.632812 20.535156 11.054688 20.535156 10.417969 C 20.535156 9.160156 21.160156 8.472656 21.90625 8.472656 C 22.242188 8.484375 22.570312 8.59375 22.847656 8.789062 L 23.003906 7.6875 C 22.621094 7.53125 22.214844 7.445312 21.804688 7.425781 C 20.582031 7.425781 19.894531 8.472656 19.894531 10.476562 C 19.894531 11.78125 20 12.675781 21.269531 12.675781 C 21.605469 12.660156 21.9375 12.605469 22.261719 12.519531 Z M 22.261719 12.519531 "/>
<path style=" stroke:none;fill-rule:nonzero;fill:rgb(86.27451%,89.803922%,89.803922%);fill-opacity:1;" d="M 6.230469 9.523438 C 6.597656 9.386719 6.988281 9.316406 7.382812 9.320312 C 7.753906 9.320312 8.066406 9.367188 8.066406 9.683594 C 8.066406 9.898438 8.011719 9.945312 8.011719 9.945312 L 7.546875 9.945312 C 6.660156 9.945312 5.660156 10.316406 5.660156 11.519531 C 5.660156 12.472656 6.292969 12.675781 6.660156 12.675781 C 7.074219 12.667969 7.46875 12.5 7.757812 12.203125 L 7.703125 12.628906 L 8.644531 12.628906 L 9.0625 9.738281 C 9.0625 8.527344 8.011719 8.472656 7.59375 8.472656 M 8.375 10.738281 C 8.160156 11.273438 7.6875 11.660156 7.121094 11.769531 C 7.007812 11.773438 6.902344 11.730469 6.820312 11.648438 C 6.742188 11.570312 6.699219 11.460938 6.703125 11.347656 C 6.703125 11.085938 6.859375 10.714844 7.648438 10.714844 C 7.890625 10.746094 8.132812 10.75 8.375 10.738281 Z M 8.375 10.738281 "/>
<path style=" stroke:none;fill-rule:nonzero;fill:rgb(86.27451%,89.803922%,89.803922%);fill-opacity:1;" d="M 8.917969 12.519531 C 9.3125 12.613281 9.714844 12.648438 10.121094 12.628906 C 10.515625 12.6875 10.917969 12.570312 11.222656 12.304688 C 11.523438 12.039062 11.695312 11.65625 11.691406 11.253906 C 11.691406 9.9375 10.433594 10.199219 10.433594 9.675781 C 10.433594 9.414062 10.648438 9.3125 11.011719 9.3125 C 11.167969 9.3125 11.746094 9.359375 11.746094 9.359375 L 11.902344 8.417969 C 11.570312 8.34375 11.234375 8.316406 10.894531 8.328125 C 10.105469 8.328125 9.84375 8.636719 9.84375 9.703125 C 9.84375 10.914062 10.632812 10.804688 10.632812 11.28125 C 10.632812 11.597656 10.261719 11.652344 10.003906 11.652344 "/>
<path style=" stroke:none;fill-rule:nonzero;fill:rgb(86.27451%,89.803922%,89.803922%);fill-opacity:1;" d="M 30.742188 8.945312 C 30.496094 8.644531 30.136719 8.457031 29.746094 8.425781 C 28.808594 8.425781 28.492188 9.582031 28.492188 10.941406 C 28.492188 11.78125 28.390625 12.675781 29.273438 12.675781 C 29.652344 12.675781 30.011719 12.527344 30.277344 12.257812 L 30.222656 12.628906 L 31.269531 12.628906 L 32.054688 7.585938 M 30.679688 10.335938 C 30.679688 10.914062 30.207031 11.652344 29.632812 11.652344 C 29.261719 11.652344 29.054688 11.335938 29.054688 10.804688 C 29.054688 9.964844 29.417969 9.429688 29.890625 9.429688 C 30.121094 9.425781 30.335938 9.523438 30.492188 9.691406 C 30.644531 9.863281 30.71875 10.089844 30.695312 10.316406 Z M 30.679688 10.335938 "/>
<path style=" stroke:none;fill-rule:nonzero;fill:rgb(86.27451%,89.803922%,89.803922%);fill-opacity:1;" d="M 1.933594 12.574219 L 2.566406 8.789062 L 2.667969 12.574219 L 3.429688 12.574219 L 4.800781 8.789062 L 4.226562 12.574219 L 5.324219 12.574219 L 6.160156 7.527344 L 4.800781 7.527344 L 3.339844 10.625 L 3.285156 7.527344 L 2.746094 7.527344 L 0.960938 12.574219 Z M 1.933594 12.574219 "/>
<path style=" stroke:none;fill-rule:nonzero;fill:rgb(86.27451%,89.803922%,89.803922%);fill-opacity:1;" d="M 17.078125 12.574219 L 18.175781 12.574219 C 18.488281 10.839844 18.539062 9.421875 19.273438 9.683594 C 19.335938 9.265625 19.460938 8.855469 19.640625 8.472656 L 19.429688 8.472656 C 18.964844 8.472656 18.59375 9.105469 18.59375 9.105469 L 18.695312 8.527344 "/>
<path style=" stroke:none;fill-rule:nonzero;fill:rgb(86.27451%,89.803922%,89.803922%);fill-opacity:1;" d="M 23.257812 9.523438 C 23.625 9.382812 24.015625 9.3125 24.410156 9.320312 C 24.773438 9.320312 25.097656 9.367188 25.097656 9.683594 C 25.097656 9.898438 25.042969 9.945312 25.042969 9.945312 L 24.5625 9.945312 C 23.675781 9.945312 22.679688 10.316406 22.679688 11.519531 C 22.679688 12.472656 23.304688 12.675781 23.675781 12.675781 C 24.089844 12.671875 24.484375 12.5 24.773438 12.203125 L 24.71875 12.628906 L 25.664062 12.628906 L 26.085938 9.738281 C 26.085938 8.527344 25.035156 8.472656 24.617188 8.472656 M 25.382812 10.738281 C 25.167969 11.265625 24.703125 11.652344 24.144531 11.769531 C 24.03125 11.769531 23.921875 11.726562 23.84375 11.648438 C 23.765625 11.570312 23.722656 11.460938 23.722656 11.347656 C 23.722656 11.085938 23.882812 10.714844 24.671875 10.714844 C 24.90625 10.742188 25.148438 10.75 25.382812 10.738281 Z M 25.382812 10.738281 "/>
<path style=" stroke:none;fill-rule:nonzero;fill:rgb(86.27451%,89.803922%,89.803922%);fill-opacity:1;" d="M 25.871094 12.574219 L 26.976562 12.574219 C 27.285156 10.839844 27.339844 9.421875 28.074219 9.683594 C 28.132812 9.265625 28.257812 8.855469 28.4375 8.472656 L 28.230469 8.472656 C 27.757812 8.472656 27.394531 9.105469 27.394531 9.105469 L 27.496094 8.527344 "/>
</g>
</svg>
