<svg xmlns="http://www.w3.org/2000/svg" viewBox="0 0 56.35 14.4"><defs><style>.cls-1{fill:#139ad6;}.cls-2{fill:#263b80;}.cls-3{fill:#232c65;}</style></defs><g id="Слой_2" data-name="Слой 2"><g id="Capa_1" data-name="Capa 1"><path class="cls-1" d="M43.56,3.76h-3a.61.61,0,0,0-.45.35L38.82,12a.24.24,0,0,0,.27.26H40.7A.23.23,0,0,0,41,12l.36-2.24a.41.41,0,0,1,.45-.36h1a3.12,3.12,0,0,0,3.49-2.95,2.34,2.34,0,0,0-.36-2,3.57,3.57,0,0,0-2.32-.71m.36,3c-.18,1.07-1,1.07-1.79,1.07h-.54L42,5.72c0-.09.09-.17.27-.17h.17c.54,0,1.08,0,1.35.35.18.09.18.36.18.81"/><path class="cls-2" d="M21.64,3.76h-3a.59.59,0,0,0-.44.35L16.9,12a.24.24,0,0,0,.27.26H18.6a.61.61,0,0,0,.45-.35l.36-2.15a.41.41,0,0,1,.45-.36h1a3.12,3.12,0,0,0,3.49-2.95,2.34,2.34,0,0,0-.36-2,3.43,3.43,0,0,0-2.33-.71m.36,3c-.18,1.07-1,1.07-1.79,1.07h-.44l.35-2.06c0-.09.09-.17.27-.17h.18c.54,0,1.07,0,1.34.35a1,1,0,0,1,.09.81"/><path class="cls-2" d="M30.86,6.62H29.43c-.09,0-.27.09-.27.18l-.09.44L29,7.07a2.11,2.11,0,0,0-1.7-.63,3.44,3.44,0,0,0-3.31,3,2.66,2.66,0,0,0,.54,2.24,2.26,2.26,0,0,0,1.88.71,2.84,2.84,0,0,0,2.05-.8l-.09.45a.24.24,0,0,0,.27.26H30a.61.61,0,0,0,.45-.35l.8-5c-.08-.09-.26-.27-.35-.27M28.8,9.48a1.73,1.73,0,0,1-1.7,1.43,1.41,1.41,0,0,1-1-.36,1.86,1.86,0,0,1-.27-1.07,1.64,1.64,0,0,1,1.61-1.43,1.61,1.61,0,0,1,1,.36,1.55,1.55,0,0,1,.36,1.07"/><path class="cls-1" d="M52.68,6.62H51.25c-.09,0-.27.09-.27.18l-.09.44-.09-.17a2.1,2.1,0,0,0-1.7-.63,3.44,3.44,0,0,0-3.31,3,2.66,2.66,0,0,0,.54,2.24,2.27,2.27,0,0,0,1.88.71,2.88,2.88,0,0,0,2.06-.8l-.09.45a.23.23,0,0,0,.26.26h1.35a.59.59,0,0,0,.44-.35l.81-5c-.09-.09-.18-.27-.36-.27M50.62,9.48a1.72,1.72,0,0,1-1.7,1.43,1.43,1.43,0,0,1-1-.36,1.86,1.86,0,0,1-.27-1.07,1.6,1.6,0,0,1,2.6-1.07,1,1,0,0,1,.35,1.07"/><path class="cls-2" d="M38.64,6.62H37.12a.47.47,0,0,0-.36.18l-2,3L33.9,7a.42.42,0,0,0-.45-.27H32c-.18,0-.27.18-.27.36l1.61,4.74L31.84,14c-.09.18,0,.45.18.45h1.43a.47.47,0,0,0,.36-.18l4.92-7.06c.27-.27.09-.54-.09-.54"/><path class="cls-1" d="M54.38,4l-1.25,8.05a.24.24,0,0,0,.27.27h1.25A.61.61,0,0,0,55.1,12l1.25-7.88a.24.24,0,0,0-.27-.26H54.65c-.09-.09-.18,0-.27.17"/><path class="cls-2" d="M10.29,1.07A4.45,4.45,0,0,0,6.89,0H2.41a.77.77,0,0,0-.62.54L0,12.25a.41.41,0,0,0,.36.45H3.13l.72-4.38V8.5A.76.76,0,0,1,4.47,8H5.81c2.6,0,4.57-1.07,5.19-4V3.67h0a3.15,3.15,0,0,0-.71-2.6"/><path class="cls-1" d="M10.91,3.67h0v.27c-.62,3-2.59,4-5.19,4H4.38a.76.76,0,0,0-.62.54L2.86,14a.33.33,0,0,0,.36.36H5.55a.5.5,0,0,0,.53-.45v-.09L6.53,11v-.18a.5.5,0,0,1,.54-.44h.35c2.24,0,4-.9,4.48-3.58a3.32,3.32,0,0,0-.45-2.69,1,1,0,0,0-.54-.44"/><path class="cls-3" d="M10.29,3.4c-.09,0-.18-.09-.27-.09a.33.33,0,0,1-.27-.09,4.71,4.71,0,0,0-1.16-.09H5.1a.33.33,0,0,0-.27.09.49.49,0,0,0-.27.45L3.85,8.32V8.5A.76.76,0,0,1,4.47,8H5.81c2.6,0,4.57-1.07,5.19-4a.33.33,0,0,1,.09-.27c-.18-.09-.27-.18-.45-.18s-.26-.09-.35-.09"/></g></g></svg>