<?xml version="1.0" encoding="UTF-8"?>
<svg xmlns="http://www.w3.org/2000/svg" xmlns:xlink="http://www.w3.org/1999/xlink" width="78px" height="20px" viewBox="0 0 80 20" version="1.1">
<g id="surface1">
<path style=" stroke:none;fill-rule:nonzero;fill:rgb(7.45098%,60.392157%,83.921569%);fill-opacity:1;" d="M 61.367188 5.222656 L 57.203125 5.222656 C 56.925781 5.269531 56.691406 5.453125 56.578125 5.707031 L 54.785156 16.667969 C 54.777344 16.765625 54.8125 16.867188 54.886719 16.9375 C 54.957031 17.007812 55.058594 17.039062 55.160156 17.027344 L 57.394531 17.027344 C 57.503906 17.0625 57.621094 17.039062 57.707031 16.964844 C 57.792969 16.890625 57.832031 16.777344 57.8125 16.667969 L 58.3125 13.554688 C 58.347656 13.246094 58.628906 13.023438 58.9375 13.054688 L 60.328125 13.054688 C 61.523438 13.199219 62.722656 12.839844 63.640625 12.0625 C 64.5625 11.285156 65.117188 10.160156 65.171875 8.957031 C 65.4375 8.003906 65.253906 6.980469 64.671875 6.179688 C 63.746094 5.484375 62.609375 5.136719 61.453125 5.195312 M 61.953125 9.359375 C 61.703125 10.847656 60.5625 10.847656 59.464844 10.847656 L 58.714844 10.847656 L 59.203125 7.945312 C 59.203125 7.820312 59.328125 7.707031 59.578125 7.707031 L 59.8125 7.707031 C 60.5625 7.707031 61.3125 7.707031 61.6875 8.195312 C 61.9375 8.320312 61.9375 8.695312 61.9375 9.320312 "/>
<path style=" stroke:none;fill-rule:nonzero;fill:rgb(14.901961%,23.137255%,50.196078%);fill-opacity:1;" d="M 30.921875 5.222656 L 26.757812 5.222656 C 26.484375 5.269531 26.253906 5.453125 26.144531 5.707031 L 24.339844 16.667969 C 24.332031 16.765625 24.367188 16.867188 24.441406 16.9375 C 24.515625 17.007812 24.613281 17.039062 24.714844 17.027344 L 26.703125 17.027344 C 26.976562 16.980469 27.210938 16.796875 27.328125 16.542969 L 27.828125 13.554688 C 27.863281 13.246094 28.140625 13.023438 28.453125 13.054688 L 29.839844 13.054688 C 31.035156 13.199219 32.238281 12.839844 33.15625 12.0625 C 34.074219 11.285156 34.628906 10.160156 34.6875 8.957031 C 34.953125 8.003906 34.769531 6.980469 34.1875 6.179688 C 33.265625 5.46875 32.113281 5.117188 30.953125 5.195312 M 31.453125 9.359375 C 31.203125 10.847656 30.0625 10.847656 28.964844 10.847656 L 28.355469 10.847656 L 28.839844 7.984375 C 28.839844 7.859375 28.964844 7.75 29.214844 7.75 L 29.464844 7.75 C 30.214844 7.75 30.953125 7.75 31.328125 8.234375 C 31.527344 8.578125 31.570312 8.984375 31.453125 9.359375 "/>
<path style=" stroke:none;fill-rule:nonzero;fill:rgb(14.901961%,23.137255%,50.196078%);fill-opacity:1;" d="M 43.730469 9.195312 L 41.742188 9.195312 C 41.617188 9.195312 41.367188 9.320312 41.367188 9.445312 L 41.242188 10.054688 L 41.144531 9.820312 C 40.53125 9.1875 39.664062 8.867188 38.785156 8.945312 C 36.4375 9.015625 34.488281 10.78125 34.1875 13.109375 C 33.953125 14.207031 34.226562 15.351562 34.9375 16.222656 C 35.605469 16.941406 36.570312 17.304688 37.546875 17.207031 C 38.609375 17.234375 39.632812 16.835938 40.394531 16.097656 L 40.269531 16.722656 C 40.261719 16.824219 40.296875 16.921875 40.371094 16.992188 C 40.445312 17.0625 40.546875 17.097656 40.644531 17.082031 L 42.535156 17.082031 C 42.8125 17.035156 43.042969 16.851562 43.160156 16.597656 L 44.269531 9.652344 C 44.160156 9.527344 43.910156 9.277344 43.785156 9.277344 M 40.867188 13.167969 C 40.667969 14.3125 39.671875 15.148438 38.507812 15.152344 C 37.996094 15.171875 37.5 14.996094 37.117188 14.652344 C 36.84375 14.207031 36.714844 13.6875 36.742188 13.167969 C 36.886719 12.039062 37.84375 11.191406 38.980469 11.179688 C 39.484375 11.183594 39.976562 11.363281 40.367188 11.679688 C 40.714844 12.09375 40.894531 12.625 40.867188 13.167969 "/>
<path style=" stroke:none;fill-rule:nonzero;fill:rgb(7.45098%,60.392157%,83.921569%);fill-opacity:1;" d="M 74.035156 9.195312 L 72.046875 9.195312 C 71.921875 9.195312 71.671875 9.320312 71.671875 9.445312 L 71.546875 10.054688 L 71.421875 9.820312 C 70.808594 9.1875 69.941406 8.863281 69.0625 8.945312 C 66.714844 9.015625 64.765625 10.78125 64.464844 13.109375 C 64.230469 14.207031 64.503906 15.351562 65.214844 16.222656 C 65.886719 16.9375 66.851562 17.304688 67.828125 17.207031 C 68.890625 17.234375 69.917969 16.832031 70.6875 16.097656 L 70.5625 16.722656 C 70.546875 16.820312 70.582031 16.921875 70.652344 16.992188 C 70.722656 17.0625 70.824219 17.097656 70.921875 17.082031 L 72.796875 17.082031 C 73.070312 17.035156 73.300781 16.851562 73.410156 16.597656 L 74.535156 9.652344 C 74.410156 9.527344 74.285156 9.277344 74.035156 9.277344 M 71.171875 13.167969 C 70.976562 14.316406 69.980469 15.15625 68.8125 15.152344 C 68.300781 15.171875 67.804688 14.992188 67.421875 14.652344 C 67.152344 14.207031 67.019531 13.6875 67.046875 13.167969 C 67.136719 12.355469 67.660156 11.660156 68.414062 11.351562 C 69.164062 11.039062 70.027344 11.167969 70.660156 11.679688 C 71.113281 12.027344 71.304688 12.617188 71.144531 13.167969 "/>
<path style=" stroke:none;fill-rule:nonzero;fill:rgb(14.901961%,23.137255%,50.196078%);fill-opacity:1;" d="M 54.535156 9.195312 L 52.421875 9.195312 C 52.226562 9.199219 52.042969 9.289062 51.921875 9.445312 L 49.144531 13.609375 L 47.953125 9.722656 C 47.855469 9.464844 47.597656 9.3125 47.328125 9.347656 L 45.3125 9.347656 C 45.0625 9.347656 44.9375 9.597656 44.9375 9.847656 L 47.171875 16.429688 L 45.089844 19.445312 C 44.964844 19.695312 45.089844 20.070312 45.339844 20.070312 L 47.328125 20.070312 C 47.523438 20.066406 47.707031 19.972656 47.828125 19.820312 L 54.660156 10.015625 C 55.035156 9.640625 54.785156 9.265625 54.535156 9.265625 "/>
<path style=" stroke:none;fill-rule:nonzero;fill:rgb(7.45098%,60.392157%,83.921569%);fill-opacity:1;" d="M 76.394531 5.554688 L 74.660156 16.734375 C 74.644531 16.839844 74.679688 16.941406 74.753906 17.015625 C 74.828125 17.089844 74.929688 17.125 75.035156 17.109375 L 76.769531 17.109375 C 77.039062 17.070312 77.269531 16.90625 77.394531 16.667969 L 79.132812 5.722656 C 79.140625 5.621094 79.105469 5.523438 79.03125 5.453125 C 78.957031 5.382812 78.855469 5.347656 78.757812 5.359375 L 76.769531 5.359375 C 76.644531 5.234375 76.519531 5.359375 76.394531 5.597656 "/>
<path style=" stroke:none;fill-rule:nonzero;fill:rgb(14.901961%,23.137255%,50.196078%);fill-opacity:1;" d="M 15.160156 1.484375 C 13.863281 0.355469 12.148438 -0.183594 10.4375 0 L 4.214844 0 C 3.808594 0.0625 3.472656 0.355469 3.355469 0.75 L 0.867188 17.015625 C 0.835938 17.324219 1.058594 17.601562 1.367188 17.640625 L 5.214844 17.640625 L 6.214844 11.554688 L 6.214844 11.804688 C 6.347656 11.429688 6.679688 11.160156 7.078125 11.109375 L 8.9375 11.109375 C 12.546875 11.109375 15.285156 9.625 16.144531 5.554688 L 16.144531 5.097656 C 16.375 3.804688 16.011719 2.480469 15.160156 1.484375 "/>
<path style=" stroke:none;fill-rule:nonzero;fill:rgb(7.45098%,60.392157%,83.921569%);fill-opacity:1;" d="M 16.019531 5.097656 L 16.019531 5.472656 C 15.160156 9.640625 12.421875 11.027344 8.8125 11.027344 L 6.953125 11.027344 C 6.542969 11.085938 6.207031 11.378906 6.089844 11.777344 L 4.839844 19.445312 C 4.828125 19.582031 4.875 19.714844 4.972656 19.8125 C 5.070312 19.910156 5.203125 19.957031 5.339844 19.945312 L 8.578125 19.945312 C 8.949219 19.96875 9.277344 19.691406 9.3125 19.320312 L 9.3125 19.195312 L 9.9375 15.277344 L 9.9375 15.027344 C 9.980469 14.65625 10.3125 14.382812 10.6875 14.417969 L 11.171875 14.417969 C 14.285156 14.417969 16.730469 13.167969 17.394531 9.445312 C 17.730469 8.167969 17.503906 6.808594 16.769531 5.707031 C 16.601562 5.421875 16.335938 5.203125 16.019531 5.097656 "/>
<path style=" stroke:none;fill-rule:nonzero;fill:rgb(13.72549%,17.254902%,39.607843%);fill-opacity:1;" d="M 15.160156 4.722656 C 15.035156 4.722656 14.910156 4.597656 14.785156 4.597656 C 14.648438 4.613281 14.507812 4.570312 14.410156 4.472656 C 13.878906 4.363281 13.339844 4.320312 12.796875 4.347656 L 7.953125 4.347656 C 7.8125 4.328125 7.675781 4.375 7.578125 4.472656 C 7.339844 4.589844 7.195312 4.832031 7.203125 5.097656 L 6.214844 11.554688 L 6.214844 11.804688 C 6.347656 11.429688 6.679688 11.160156 7.078125 11.109375 L 8.9375 11.109375 C 12.546875 11.109375 15.285156 9.625 16.144531 5.554688 C 16.128906 5.417969 16.175781 5.28125 16.269531 5.179688 C 16.019531 5.054688 15.894531 4.929688 15.644531 4.929688 C 15.394531 4.929688 15.285156 4.804688 15.160156 4.804688 "/>
</g>
</svg>
