<svg xmlns="http://www.w3.org/2000/svg" viewBox="0 0 48 33.1"><defs><style>.cls-1{fill:#fff;}.cls-2{fill:#f79f1a;}.cls-3{fill:#059bbf;}.cls-4{fill:#202121;isolation:isolate;opacity:0.15;}</style></defs><g id="Слой_2" data-name="Слой 2"><g id="Capa_1" data-name="Capa 1"><path class="cls-1" d="M48,30.27a2.84,2.84,0,0,1-2.84,2.83H2.84A2.84,2.84,0,0,1,0,30.27V2.84A2.84,2.84,0,0,1,2.84,0H45.16A2.84,2.84,0,0,1,48,2.84V30.27Z"/><path class="cls-2" d="M10.65,16.74l-1.12-5.4a1.36,1.36,0,0,0-1.46-1H2.91l-.05.25C6.88,11.56,9.55,13.92,10.65,16.74Z"/><polygon class="cls-3" points="22.63 10.45 19.29 10.45 17.2 22.68 20.54 22.68 22.63 10.45"/><path class="cls-3" d="M12.69,22.67l5.25-12.21H14.41L11.14,18.8l-.35-1.26a13.06,13.06,0,0,0-4.62-5.07l3,10.21Z"/><path class="cls-3" d="M32.15,18.68c0-1.38-.88-2.44-2.8-3.32-1.17-.57-1.88-.94-1.87-1.52s.6-1.05,1.91-1.05a6.18,6.18,0,0,1,2.49.47l.3.14.46-2.65a8.64,8.64,0,0,0-3-.51c-3.3,0-5.62,1.66-5.64,4C24,16,25.67,17,26.93,17.6s1.74,1,1.73,1.52c0,.82-1,1.19-2,1.19a7,7,0,0,1-3.14-.64l-.42-.2-.47,2.74a10.26,10.26,0,0,0,3.71.65C29.85,22.86,32.12,21.23,32.15,18.68Z"/><path class="cls-3" d="M36.12,20.85h4.27c.1.43.4,1.84.4,1.84h3.1l-2.7-12.23H38.61a1.65,1.65,0,0,0-1.74,1l-5,11.22h3.51S36,21.18,36.12,20.85Zm2.28-5.93s.28-.7.45-1.16l.22,1.05s.64,2.92.77,3.54H37.07C37.35,17.64,38.4,14.92,38.4,14.92Z"/><path class="cls-3" d="M45.16,0H2.84A2.84,2.84,0,0,0,0,2.84V5.78H48V2.84A2.84,2.84,0,0,0,45.16,0Z"/><path class="cls-2" d="M45.16,33.1H2.84A2.84,2.84,0,0,1,0,30.27V27.32H48v2.95A2.84,2.84,0,0,1,45.16,33.1Z"/><path class="cls-4" d="M2,30.27V2.84A2.84,2.84,0,0,1,4.85,0h-2A2.84,2.84,0,0,0,0,2.84V30.27A2.84,2.84,0,0,0,2.84,33.1h2A2.83,2.83,0,0,1,2,30.27Z"/></g></g></svg>