<?xml version="1.0" encoding="UTF-8"?>
<svg xmlns="http://www.w3.org/2000/svg" xmlns:xlink="http://www.w3.org/1999/xlink" width="29px" height="20px" viewBox="0 0 29 20" version="1.1">
<defs>
<filter id="alpha" filterUnits="objectBoundingBox" x="0%" y="0%" width="100%" height="100%">
  <feColorMatrix type="matrix" in="SourceGraphic" values="0 0 0 0 1 0 0 0 0 1 0 0 0 0 1 0 0 0 1 0"/>
</filter>
<mask id="mask0">
  <g filter="url(#alpha)">
<rect x="0" y="0" width="29" height="20" style="fill:rgb(0%,0%,0%);fill-opacity:0.14902;stroke:none;"/>
  </g>
</mask>
<clipPath id="clip1">
  <rect x="0" y="0" width="29" height="20"/>
</clipPath>
<g id="surface5" clip-path="url(#clip1)">
<path style=" stroke:none;fill-rule:nonzero;fill:rgb(12.54902%,12.941176%,12.941176%);fill-opacity:1;" d="M 1.25 18.289062 L 1.25 1.714844 C 1.25 1.261719 1.429688 0.824219 1.75 0.5 C 2.074219 0.179688 2.511719 0 2.964844 0 L 1.761719 0 C 1.304688 0 0.867188 0.179688 0.546875 0.5 C 0.226562 0.824219 0.0429688 1.261719 0.0429688 1.714844 L 0.0429688 18.289062 C 0.046875 19.234375 0.8125 20 1.753906 20 L 2.960938 20 C 2.507812 20 2.070312 19.820312 1.75 19.5 C 1.429688 19.179688 1.25 18.746094 1.25 18.289062 Z M 1.25 18.289062 "/>
</g>
</defs>
<g id="surface1">
<path style=" stroke:none;fill-rule:nonzero;fill:rgb(100%,100%,100%);fill-opacity:1;" d="M 28.957031 18.289062 C 28.953125 19.234375 28.1875 20 27.246094 20 L 1.753906 20 C 0.8125 20 0.046875 19.234375 0.0429688 18.289062 L 0.0429688 1.714844 C 0.0429688 0.769531 0.808594 0 1.753906 0 L 27.246094 0 C 28.191406 0 28.957031 0.769531 28.957031 1.714844 Z M 28.957031 18.289062 "/>
<path style=" stroke:none;fill-rule:nonzero;fill:rgb(96.862745%,62.352941%,10.196078%);fill-opacity:1;" d="M 6.457031 10.113281 L 5.785156 6.851562 C 5.679688 6.460938 5.304688 6.203125 4.90625 6.246094 L 1.796875 6.246094 L 1.765625 6.398438 C 4.1875 6.984375 5.796875 8.410156 6.457031 10.113281 Z M 6.457031 10.113281 "/>
<path style=" stroke:none;fill-rule:nonzero;fill:rgb(1.960784%,60.784314%,74.901961%);fill-opacity:1;" d="M 13.675781 6.3125 L 11.664062 6.3125 L 10.402344 13.703125 L 12.414062 13.703125 Z M 13.675781 6.3125 "/>
<path style=" stroke:none;fill-rule:nonzero;fill:rgb(1.960784%,60.784314%,74.901961%);fill-opacity:1;" d="M 7.6875 13.699219 L 10.851562 6.320312 L 8.722656 6.320312 L 6.753906 11.359375 L 6.542969 10.597656 C 5.902344 9.347656 4.945312 8.289062 3.761719 7.535156 L 5.566406 13.703125 Z M 7.6875 13.699219 "/>
<path style=" stroke:none;fill-rule:nonzero;fill:rgb(1.960784%,60.784314%,74.901961%);fill-opacity:1;" d="M 19.410156 11.285156 C 19.410156 10.453125 18.878906 9.8125 17.722656 9.28125 C 17.019531 8.9375 16.589844 8.714844 16.597656 8.363281 C 16.601562 8.011719 16.957031 7.726562 17.746094 7.726562 C 18.261719 7.71875 18.769531 7.816406 19.246094 8.011719 L 19.425781 8.097656 L 19.703125 6.496094 C 19.125 6.285156 18.511719 6.183594 17.898438 6.1875 C 15.910156 6.1875 14.511719 7.191406 14.5 8.605469 C 14.5 9.667969 15.507812 10.273438 16.265625 10.632812 C 17.023438 10.996094 17.3125 11.238281 17.308594 11.554688 C 17.308594 12.046875 16.703125 12.273438 16.101562 12.273438 C 15.449219 12.292969 14.804688 12.160156 14.210938 11.886719 L 13.957031 11.765625 L 13.675781 13.421875 C 14.390625 13.6875 15.148438 13.820312 15.910156 13.8125 C 18.023438 13.8125 19.390625 12.828125 19.410156 11.285156 Z M 19.410156 11.285156 "/>
<path style=" stroke:none;fill-rule:nonzero;fill:rgb(1.960784%,60.784314%,74.901961%);fill-opacity:1;" d="M 21.800781 12.597656 L 24.371094 12.597656 C 24.433594 12.859375 24.613281 13.710938 24.613281 13.710938 L 26.480469 13.710938 L 24.855469 6.320312 L 23.300781 6.320312 C 22.855469 6.261719 22.425781 6.507812 22.253906 6.925781 L 19.242188 13.703125 L 21.355469 13.703125 C 21.355469 13.703125 21.726562 12.796875 21.800781 12.597656 Z M 23.171875 9.015625 C 23.171875 9.015625 23.34375 8.59375 23.445312 8.3125 L 23.578125 8.949219 C 23.578125 8.949219 23.960938 10.714844 24.042969 11.085938 L 22.371094 11.085938 C 22.542969 10.660156 23.171875 9.015625 23.171875 9.015625 Z M 23.171875 9.015625 "/>
<path style=" stroke:none;fill-rule:nonzero;fill:rgb(1.960784%,60.784314%,74.901961%);fill-opacity:1;" d="M 27.246094 0 L 1.753906 0 C 0.808594 0 0.0429688 0.769531 0.0429688 1.714844 L 0.0429688 3.492188 L 28.957031 3.492188 L 28.957031 1.714844 C 28.957031 0.769531 28.191406 0 27.246094 0 Z M 27.246094 0 "/>
<path style=" stroke:none;fill-rule:nonzero;fill:rgb(96.862745%,62.352941%,10.196078%);fill-opacity:1;" d="M 27.246094 20 L 1.753906 20 C 0.8125 20 0.046875 19.234375 0.0429688 18.289062 L 0.0429688 16.507812 L 28.957031 16.507812 L 28.957031 18.289062 C 28.953125 19.234375 28.1875 20 27.246094 20 Z M 27.246094 20 "/>
<use xlink:href="#surface5" mask="url(#mask0)"/>
</g>
</svg>
