<?xml version="1.0" encoding="UTF-8"?>
<svg xmlns="http://www.w3.org/2000/svg" xmlns:xlink="http://www.w3.org/1999/xlink" width="180px" height="30px" viewBox="0 0 179 30" version="1.1">
<g id="surface1">
<path style=" stroke:none;fill-rule:nonzero;fill:rgb(10.196078%,10.196078%,10.196078%);fill-opacity:1;" d="M 0 29.535156 L 0 0.164062 L 0.46875 0.164062 L 14.359375 16.433594 L 28.109375 0.164062 L 28.578125 0.164062 L 28.578125 29.535156 L 24.300781 29.535156 L 24.300781 14.449219 L 24.472656 10.25 C 23.710938 11.488281 22.851562 12.664062 21.90625 13.761719 L 14.546875 22.566406 L 14.03125 22.566406 L 6.707031 13.78125 L 4.140625 10.269531 C 4.261719 11.980469 4.3125 13.378906 4.3125 14.464844 L 4.3125 29.535156 Z M 0 29.535156 "/>
<path style=" stroke:none;fill-rule:nonzero;fill:rgb(10.196078%,10.196078%,10.196078%);fill-opacity:1;" d="M 77.710938 20.5625 L 83.851562 29.535156 L 78.652344 29.535156 L 73.441406 21.878906 C 72.628906 21.980469 71.816406 22.035156 71 22.050781 L 68.273438 22.050781 L 68.273438 29.535156 L 63.738281 29.535156 L 63.738281 0.464844 L 71.019531 0.464844 C 75.011719 0.464844 78.09375 1.429688 80.269531 3.367188 C 82.488281 5.398438 83.6875 8.316406 83.535156 11.320312 C 83.523438 15.769531 81.582031 18.847656 77.710938 20.5625 Z M 68.296875 18.164062 L 70.863281 18.164062 C 76.242188 18.164062 78.9375 15.878906 78.941406 11.3125 C 78.945312 6.746094 76.253906 4.464844 70.863281 4.464844 L 68.296875 4.464844 Z M 68.296875 18.164062 "/>
<path style=" stroke:none;fill-rule:nonzero;fill:rgb(99.607843%,24.313725%,34.117647%);fill-opacity:1;" d="M 103.171875 29.921875 C 99.214844 30.011719 95.386719 28.484375 92.582031 25.691406 C 89.722656 22.882812 88.171875 19.007812 88.300781 15.003906 C 88.179688 11.011719 89.730469 7.152344 92.582031 4.359375 C 95.386719 1.5625 99.210938 0.03125 103.171875 0.121094 C 108.359375 0.121094 112.230469 2.046875 114.792969 5.894531 L 111.371094 8.375 C 109.578125 5.578125 106.859375 4.179688 103.214844 4.179688 C 100.421875 4.097656 97.730469 5.21875 95.824219 7.261719 C 93.878906 9.351562 92.839844 12.117188 92.921875 14.96875 C 92.835938 17.835938 93.875 20.625 95.824219 22.726562 C 98.003906 24.949219 101.0625 26.070312 104.160156 25.785156 C 107.257812 25.5 110.0625 23.835938 111.796875 21.253906 L 115.21875 23.6875 C 112.515625 27.84375 108.5 29.921875 103.171875 29.921875 Z M 103.171875 29.921875 "/>
<path style=" stroke:none;fill-rule:nonzero;fill:rgb(99.607843%,24.313725%,34.117647%);fill-opacity:1;" d="M 120.347656 29.535156 L 120.347656 0.464844 L 124.871094 0.464844 L 124.871094 13.539062 L 138.84375 13.539062 L 138.84375 0.464844 L 143.371094 0.464844 L 143.371094 29.535156 L 138.84375 29.535156 L 138.84375 17.546875 L 124.871094 17.546875 L 124.871094 29.535156 Z M 120.347656 29.535156 "/>
<path style=" stroke:none;fill-rule:nonzero;fill:rgb(99.607843%,24.313725%,34.117647%);fill-opacity:1;" d="M 164.050781 29.921875 C 160.074219 30.015625 156.226562 28.488281 153.390625 25.691406 C 150.511719 22.894531 148.9375 19.019531 149.050781 15.003906 C 148.933594 10.988281 150.507812 7.105469 153.390625 4.308594 C 159.363281 -1.332031 168.691406 -1.332031 174.660156 4.308594 C 177.542969 7.105469 179.117188 10.988281 179 15.003906 C 179.117188 19.019531 177.542969 22.894531 174.660156 25.691406 C 171.84375 28.480469 168.015625 30.007812 164.050781 29.921875 Z M 156.582031 22.761719 C 158.550781 24.746094 161.230469 25.863281 164.027344 25.863281 C 166.820312 25.863281 169.5 24.746094 171.46875 22.761719 C 173.421875 20.660156 174.46875 17.871094 174.378906 15.003906 C 174.46875 12.132812 173.425781 9.339844 171.46875 7.238281 C 169.5 5.253906 166.820312 4.136719 164.027344 4.136719 C 161.230469 4.136719 158.550781 5.253906 156.582031 7.238281 C 154.621094 9.335938 153.566406 12.128906 153.65625 15.003906 C 153.570312 17.875 154.621094 20.664062 156.582031 22.761719 Z M 156.582031 22.761719 "/>
<path style=" stroke:none;fill-rule:nonzero;fill:rgb(10.196078%,10.196078%,10.196078%);fill-opacity:1;" d="M 46.265625 0.164062 L 45.75 0.164062 L 33.320312 29.535156 L 37.683594 29.535156 L 45.921875 8.246094 L 54.300781 29.535156 L 58.996094 29.535156 Z M 46.265625 0.164062 "/>
</g>
</svg>
